<svg xmlns="http://www.w3.org/2000/svg" width="256" height="256"><path fill-opacity=".016" d="M0 128.004v128.004l128.25-.254 128.25-.254.254-127.75L257.008 0H0v128.004m.485.496c0 70.4.119 99.053.265 63.672.146-35.38.146-92.98 0-128C.604 29.153.485 58.1.485 128.5" fill="#1976D2" fill-rule="evenodd"/><path fill-opacity=".175" d="M101 1.894C81.723 6.166 64.441 15.823 48.184 31.406 25.011 53.619 6.56 84.77 2 109.377.326 118.411 1.243 134.292 3.999 144c6.265 22.065 26.053 52.115 50.442 76.599 16.646 16.712 29.967 25.54 47.559 31.517 8.186 2.782 11.237 3.289 22.062 3.669 14.931.523 23.854-1.434 35.762-7.841 15.584-8.386 27.054-19.153 51.176-48.042 19.522-23.38 27.676-34.763 33.959-47.402 7.311-14.708 9.041-22.099 9.041-38.618 0-11.673-.371-14.937-2.55-22.458C239.976 51.83 199.009 16.434 150 3.769 134.642-.2 114.01-.989 101 1.894m19.5 33.673c-4.264 2.21-9.238 7.254-9.95 10.092-1.947 7.756 9.489 15.508 22.878 15.508 5.432 0 8.108-1.369 10.062-5.147 3.512-6.791.878-15.996-5.731-20.025-4.015-2.449-12.934-2.669-17.259-.428M155 111c-.83 1.551-.76 2 .31 2 .759 0 2.195-.9 3.19-2 1.756-1.94 1.747-2-.31-2-1.166 0-2.601.9-3.19 2m-4.5 4.945c-7.801 3.193-9.342 15.183-2.571 20.005 3.493 2.486 10.642 2.739 13.854.489 2.664-1.866 5.217-6.509 5.217-9.488 0-8.012-9.056-14.052-16.5-11.006m46.5 10.769c0 10.619.118 11.286 2 11.286 1.882 0 2-.667 2-11.286s-.118-11.285-2-11.285c-1.882 0-2 .666-2 11.285m14.763-10.149C208.308 118.44 206 122.84 206 127.55c0 2.818.775 4.425 3.4 7.05 2.902 2.902 4.088 3.4 8.1 3.4s5.198-.498 8.1-3.4c2.625-2.625 3.4-4.232 3.4-7.05 0-9.631-9.074-15.414-17.237-10.985M26 127v11h2.5c2.25 0 2.5-.4 2.5-4 0-3.736.189-4 2.865-4 4.13 0 8.135-3.482 8.135-7.073 0-4.819-3.043-6.927-10-6.927h-6v11m20.705-1.75c-1.998 5.088-3.922 10.037-4.276 11-1.056 2.873 3.059 2.17 4.389-.75.972-2.133 1.806-2.5 5.685-2.5 3.929 0 4.676.339 5.497 2.5.582 1.531 1.736 2.5 2.975 2.5 1.114 0 2.025-.292 2.025-.648 0-.357-1.89-5.307-4.201-11C55.317 117.77 54.234 116 52.468 116c-1.759 0-2.764 1.614-5.763 9.25m15.478-7.536c.222 1.152 1.311 1.725 3.324 1.75l2.993.036.288 9.25c.259 8.364.472 9.25 2.212 9.25 1.74 0 1.953-.886 2.212-9.25l.288-9.25 2.75.039c1.99.029 2.75-.455 2.75-1.75 0-1.58-1.003-1.789-8.573-1.789-7.558 0-8.535.203-8.244 1.714M83 127c0 10.333.121 11 2 11 1.667 0 2-.667 2-4 0-2.2.444-4 .986-4s2.177 1.8 3.633 4c1.879 2.84 3.35 4 5.073 4 2.585 0 2.539-.25-.97-5.314-1.942-2.804-1.942-2.823.164-5.065 1.192-1.268 2.114-3.572 2.114-5.28 0-4.53-2.665-6.341-9.329-6.341H83v11m20 0c0 10.977.005 11 2.426 11 2.421 0 2.426-.023 2.426-11s-.005-11-2.426-11c-2.421 0-2.426.023-2.426 11m10 0c0 10.333.121 11 2 11 1.81 0 2-.667 2-7 0-3.85.338-6.998.75-6.996.412.002 2.073 3.152 3.691 7 1.92 4.567 3.503 6.996 4.559 6.996s2.639-2.429 4.559-6.996c1.618-3.848 3.279-6.998 3.691-7 .412-.002.75 3.146.75 6.996 0 6.333.19 7 2 7 1.879 0 2-.667 2-11v-11h-2.865c-2.608 0-3.158.673-6.135 7.5-1.799 4.125-3.547 7.5-3.885 7.499-.338-.001-2.132-3.376-3.987-7.5-3.063-6.814-3.634-7.499-6.25-7.499H113v11m58 0v11h2.567c2.517 0 2.564-.132 2.424-6.75-.078-3.713-.109-7.155-.067-7.65.042-.496 2.461 2.429 5.377 6.5 3.379 4.716 6.099 7.516 7.5 7.72 2.152.312 2.199.083 2.199-10.75 0-10.321-.132-11.07-1.956-11.07-1.735 0-1.99.821-2.25 7.25l-.294 7.25-5-7.218c-4.127-5.959-5.48-7.224-7.75-7.25L171 116v11m-140-4.434c0 3.271.22 3.541 2.649 3.25 3.795-.453 5.442-3.494 2.91-5.375-3.537-2.626-5.559-1.853-5.559 2.125m56 0c0 3.271.22 3.541 2.649 3.25 3.795-.453 5.442-3.494 2.91-5.375-3.537-2.626-5.559-1.853-5.559 2.125m63.455-1.111c-4.737 4.736-1.976 12.545 4.434 12.545 7.002 0 10.016-8.104 4.712-12.667-3.473-2.987-6.073-2.952-9.146.122m63.86-1.47C207.272 122.893 209.796 134 217.5 134c3.81 0 7.5-3.702 7.5-7.524 0-4.839-5.941-8.448-10.685-6.491m-163.308 4.496c-.587 1.544-1.305 3.192-1.596 3.663-.291.471 1.063.856 3.009.856 3.475 0 3.517-.048 2.369-2.75-1.868-4.397-2.645-4.76-3.782-1.769M60 147.709c-2.966 1.091-5 3.65-5 6.291 0 3.022 1.77 4.797 7.25 7.273 4.128 1.865 4.552 2.817 2.146 4.813-1.346 1.118-2.071 1.063-4.516-.34-2.728-1.566-5.88-1.455-5.88.206 0 1.988 4.468 4.503 8 4.503 7.451 0 10.801-7.107 5.365-11.382-1.449-1.14-3.217-2.073-3.928-2.073-.712 0-2.033-.739-2.937-1.643-1.466-1.466-1.48-1.806-.131-3.154 1.344-1.344 1.767-1.346 3.821-.013 2.633 1.709 4.81 1.336 4.81-.824 0-1.146-5.907-4.654-7.218-4.287-.155.043-.957.327-1.782.63m20.5.682c-5.024 2.237-7 5.244-7 10.648 0 8.338 7.157 13.549 15.035 10.949 2.612-.861 3.896-.875 4.887-.053 1.021.848 1.493.728 1.964-.5.341-.888.373-2.016.071-2.505-.302-.489-.035-2.607.594-4.708 2.751-9.178-6.842-17.71-15.551-13.831m66.5.333c-6.864 3.483-8.791 12.646-3.79 18.025 4.749 5.108 13.122 5.526 14.044.702.417-2.183.209-2.409-1.638-1.777-7.873 2.691-13.715-4.805-8.995-11.543 1.356-1.936 2.334-2.256 6-1.965 3.982.317 4.379.144 4.379-1.909 0-1.241-.562-2.263-1.25-2.271-.687-.007-2.15-.244-3.25-.526-1.1-.281-3.575.287-5.5 1.264m55.094-.439c-9.908 3.534-10.11 17.303-.314 21.396 6.959 2.908 14.946-1.797 15.841-9.333 1.018-8.571-7.268-15.009-15.527-12.063M38 159v11h6.573c5.72 0 6.531-.227 6.242-1.75-.242-1.277-1.48-1.833-4.574-2.057-3.747-.272-4.241-.593-4.241-2.75 0-2.183.425-2.443 4-2.443 3.333 0 4-.333 4-2s-.667-2-4-2c-3.6 0-4-.25-4-2.5 0-2.296.367-2.5 4.5-2.5 3.833 0 4.5-.296 4.5-2 0-1.795-.667-2-6.5-2H38v11m63-3.047c0 4.374.508 9.069 1.13 10.432 2.276 4.995 10.558 5.825 14.516 1.455 1.442-1.592 1.932-4.024 2.203-10.944l.35-8.896h-2.6c-2.594 0-2.599.016-2.599 8.465 0 7.441-.242 8.594-2 9.535-2.311 1.237-5.403-.001-6.382-2.554-.34-.885-.618-4.723-.618-8.528 0-6.251-.193-6.918-2-6.918-1.832 0-2 .667-2 7.953M124 159v11h6.5c5.833 0 6.5-.205 6.5-2 0-1.704-.667-2-4.5-2-4.133 0-4.5-.204-4.5-2.5 0-2.25.4-2.5 4-2.5 3.333 0 4-.333 4-2s-.667-2-4-2c-3.6 0-4-.25-4-2.5 0-2.296.367-2.5 4.5-2.5 3.833 0 4.5-.296 4.5-2 0-1.795-.667-2-6.5-2H124v11m38 0c0 10.333.121 11 2 11s2-.667 2-11-.121-11-2-11-2 .667-2 11m10 0v11h5.984c5.116 0 6.431-.399 9.062-2.75 4.094-3.658 4.913-9.387 2.006-14.025-2.454-3.914-5.494-5.225-12.117-5.225H172v11m-90-6.699c-3.772 1.897-5.437 6.017-3.805 9.413 1.592 3.31 5.859 5.863 8.261 4.941 1.36-.522 1.509-.992.644-2.034-.847-1.021-.773-1.647.299-2.537.971-.806 1.629-.848 2.071-.133 1.3 2.104 2.53.966 2.53-2.34 0-5.966-5.165-9.742-10-7.31M176 159v7h3.345c4.14 0 6.655-2.581 6.655-6.829 0-4.026-3.07-7.171-7-7.171h-3v7m25-5c-4.302 4.302-1.157 12.333 4.831 12.333 1.729 0 4.049-.819 5.156-1.821 2.621-2.372 2.726-8.557.184-10.857-2.516-2.277-7.726-2.1-10.171.345" fill="#1976D2" fill-rule="evenodd"/><path fill-opacity=".473" d="M104.74 1.583C82.622 5.581 63.235 16.482 44.5 35.453 25.825 54.363 9.405 81.737 3.382 104c-2.647 9.786-2.433 27.108.469 38 4.587 17.214 16.008 37.342 33.608 59.229 24.971 31.054 48.459 47.766 74.749 53.183 16.078 3.313 30.696 1.423 45.292-5.856 16.79-8.373 29.207-19.85 54.96-50.798 23.037-27.685 32.079-41.718 38.182-59.258 2.586-7.433 2.786-9.134 2.821-24 .042-18.179-1.31-24.322-8.56-38.89C221.246 28.077 154.162-7.353 104.74 1.583m17.915 32.876C115.824 36.894 110 42.885 110 47.476c0 6.236 6.156 11.1 17.134 13.539 7.351 1.633 12.095.69 15.221-3.025 3.235-3.845 4.034-7.833 2.619-13.086-1.366-5.073-5.729-9.464-10.803-10.873-4.753-1.32-6.83-1.243-11.516.428M155.2 110.2c-1.726 1.726-1.479 2.8.645 2.8 1.015 0 2.66-.9 3.655-2 1.763-1.948 1.747-2-.645-2-1.35 0-2.995.54-3.655 1.2M26 126.5V138h2.5c2.25 0 2.5-.4 2.5-4 0-3.905.083-4 3.5-4 4.566 0 7.5-2.905 7.5-7.427 0-4.966-3.661-7.573-10.635-7.573H26v11.5m19.776 0L41.189 138h2.427c1.618 0 2.806-.833 3.566-2.5.959-2.105 1.821-2.5 5.459-2.5 3.775 0 4.4.316 4.948 2.5.483 1.921 1.275 2.5 3.425 2.5h2.797l-4.587-11.5c-3.848-9.65-4.93-11.5-6.724-11.5-1.794 0-2.876 1.85-6.724 11.5m16.224-9c0 2.111.467 2.5 3 2.5h3v9c0 8.933.019 9 2.5 9s2.5-.067 2.5-9v-9h3c2.533 0 3-.389 3-2.5 0-2.471-.1-2.5-8.5-2.5s-8.5.029-8.5 2.5m20 9V138h2.5c2.25 0 2.5-.4 2.5-4 0-2.2.39-4 .867-4s2.058 1.8 3.514 4c2.108 3.186 3.257 4 5.639 4h2.993l-3.06-4.224c-2.659-3.671-2.86-4.371-1.533-5.341 2.34-1.711 3.424-5.583 2.393-8.542-1.165-3.341-4.61-4.893-10.86-4.893H82v11.5m21 0V138h5v-23h-5v11.5m10 0V138h2.5c2.419 0 2.5-.219 2.509-6.75l.009-6.75 3.148 6.75c2.062 4.422 3.729 6.75 4.834 6.75 1.105 0 2.772-2.328 4.834-6.75l3.148-6.75.009 6.75c.009 6.531.09 6.75 2.509 6.75h2.5v-23h-2.819c-2.549 0-3.136.72-6.116 7.5-1.812 4.125-3.612 7.5-4 7.5-.387 0-2.187-3.375-4-7.5-3.005-6.838-3.55-7.5-6.18-7.5H113v11.5m35.42-9.674c-8.119 5.108-6.578 17.38 2.662 21.208 10.929 4.527 21.051-10.257 13.109-19.147-3.665-4.101-11.003-5.06-15.771-2.061M171 126.5V138h2.456c2.352 0 2.469-.305 2.75-7.135l.294-7.136 4.913 7.136c4.142 6.015 5.359 7.135 7.75 7.135H192v-23h-2.458c-2.368 0-2.468.276-2.75 7.574l-.292 7.573-5.259-7.573c-4.164-5.997-5.778-7.574-7.75-7.574H171v11.5m26-.07V138h5.066l-.283-11.25c-.272-10.807-.372-11.263-2.533-11.57-2.222-.315-2.25-.176-2.25 11.25m13.095-8.856c-8.884 7.475-4.124 20.926 7.405 20.926 5.189 0 9.242-2.639 11.181-7.28 3.183-7.618-2.747-16.22-11.181-16.22-3.211 0-5.146.673-7.405 2.574M31 122.934c0 2.259.46 3.062 1.75 3.051 4.939-.044 5.828-5.243.991-5.801-2.461-.285-2.741-.004-2.741 2.75M87 123c0 2.828.268 3.102 2.75 2.816 2.182-.251 2.75-.832 2.75-2.816s-.568-2.565-2.75-2.816c-2.482-.286-2.75-.012-2.75 2.816m63.039-.811c-2.726 2.925-2.573 6.368.416 9.356 3.08 3.081 6.559 3.133 9.371.141 2.556-2.722 2.794-6.356.617-9.463-2.107-3.009-7.616-3.027-10.404-.034m62.616-.36c-2.476 2.736-2.157 8.706.568 10.614 5.029 3.523 10.777.673 10.777-5.345 0-4.554-2.392-7.098-6.674-7.098-1.659 0-3.761.823-4.671 1.829m-161.514 3.196c-1.468 4.211-1.552 3.975 1.426 3.975 2.2 0 2.469-.322 1.879-2.25-1.454-4.753-2.127-5.104-3.305-1.725M37.45 148.27c-.288.751-.395 6.06-.237 11.798L37.5 170.5l6.75.296c6.643.291 6.75.255 6.75-2.25 0-2.351-.345-2.546-4.5-2.546-4.133 0-4.5-.204-4.5-2.5 0-2.25.4-2.5 4-2.5 3.292 0 4-.343 4-1.94 0-1.519-.812-2.006-3.75-2.25-3.012-.249-3.813-.753-4.07-2.56-.292-2.056.081-2.25 4.32-2.25s4.612-.194 4.32-2.25c-.288-2.021-.956-2.28-6.583-2.548-4.585-.218-6.403.068-6.787 1.068m19.773.287c-1.516 1.061-2.218 2.572-2.208 4.75.02 4.176.703 5.09 5.472 7.327 4.552 2.134 6.007 5.366 2.415 5.366-1.234 0-2.986-.671-3.893-1.492-1.461-1.322-1.869-1.322-3.579-.002-1.878 1.449-1.855 1.557.876 3.992 5.812 5.183 14.103 1.905 13.499-5.338-.273-3.274-.805-3.899-5.055-5.929-2.612-1.248-4.75-2.936-4.75-3.75 0-1.801 2.328-1.918 4.997-.251 1.616 1.01 2.258.944 3.566-.365 1.461-1.46 1.366-1.775-1.119-3.73-3.204-2.521-7.131-2.743-10.221-.578m21.344.33c-10.148 6.896-5.568 22.154 6.633 22.098 1.815-.009 3.96-.433 4.766-.943.93-.588 1.937-.538 2.75.138 1.852 1.536 4.741-.925 3.227-2.749-.77-.928-.774-1.879-.012-3.301 5.278-9.863-8.055-21.568-17.364-15.243m22.142-1.263c-1.069 1.069-.84 12.364.335 16.597 1.681 6.051 7.249 8.425 13.299 5.669 3.582-1.632 4.657-4.981 4.657-14.507 0-8.266-.068-8.512-2.25-8.203-2.088.297-2.271.891-2.546 8.273-.328 8.825-1.3 10.791-5.118 10.348-2.524-.294-2.598-.515-3.086-9.301-.45-8.104-.703-9.029-2.541-9.292-1.123-.161-2.36.027-2.75.416M124 159v12h6.5c6.267 0 6.5-.09 6.5-2.5 0-2.25-.4-2.5-4-2.5s-4-.25-4-2.5.4-2.5 4-2.5c3.333 0 4-.333 4-2s-.667-2-4-2c-3.6 0-4-.25-4-2.5s.4-2.5 4-2.5 4-.25 4-2.5c0-2.41-.233-2.5-6.5-2.5H124v12m21.567-10.054c-3.693 2.435-5.486 5.629-5.532 9.854-.091 8.491 7.193 13.854 15.715 11.57 1.529-.41 2.25-1.361 2.25-2.968 0-2.214-.275-2.326-4.353-1.767-3.699.507-4.676.25-6.5-1.708-5.631-6.043 1.563-14.829 8.919-10.892 1.672.895 1.934.697 1.934-1.465 0-4.625-7.118-6.127-12.433-2.624M162 159c0 12.017.023 12.136 2.25 11.82 2.184-.311 2.25-.655 2.25-11.82 0-11.165-.066-11.509-2.25-11.82-2.227-.316-2.25-.197-2.25 11.82m9.963-11.5c-.02.275-.047 5.563-.059 11.75l-.023 11.25 6.234-.107c5.831-.1 6.45-.342 9.56-3.735 8.017-8.748 1.138-19.629-12.425-19.652-1.787-.003-3.267.219-3.287.494m29.537.454c-3.814 1.578-6.715 5.77-7.245 10.473-.481 4.266-.262 4.801 3.499 8.562 3.223 3.223 4.731 4.011 7.678 4.011 7.382 0 12.609-5.088 12.533-12.2-.09-8.358-8.727-14.047-16.465-10.846M80 154c-4.092 4.092-1.188 12 4.406 12 1.866 0 2.296-.424 1.913-1.887-.604-2.311 1.295-3.678 3.067-2.208 3.332 2.766 3.618-4.613.3-7.731-2.893-2.717-7.068-2.792-9.686-.174m97 5c0 6.66.113 7 2.326 7 3.044 0 6.674-3.939 6.674-7.242 0-2.902-4.071-6.758-7.135-6.758-1.642 0-1.865.835-1.865 7m24.073-4.365c-1.14 1.449-2.073 3.413-2.073 4.365 0 .952.933 2.916 2.073 4.365C205.071 168.449 213 165.547 213 159c0-6.547-7.929-9.449-11.927-4.365" fill="#1976D2" fill-rule="evenodd"/><path fill-opacity=".698" d="M113 .634c-19.921 2.335-38.965 10.14-54.527 22.347C34.027 42.156 9.905 78.394 3.344 105.8c-5.934 24.785 2.973 53.619 26.164 84.7 26.683 35.76 51.322 55.536 77.992 62.598 10.412 2.757 27.199 2.992 36.372.509 19.966-5.405 35.061-17.014 59.949-46.107 29.103-34.02 42.105-53.724 47.18-71.5 4.69-16.429 3.572-35.799-3.059-52.993-14.379-37.288-58.097-70.616-104.877-79.954C133.094 1.063 119.01-.07 113 .634m8 33.901c-1.925.862-5.187 3.21-7.25 5.219-3.073 2.992-3.75 4.359-3.75 7.567C110 55.008 120.827 62 132.731 62c5.813 0 10.107-2.369 11.848-6.534 4.499-10.769-2.477-21.493-14.427-22.175-3.613-.206-6.915.243-9.152 1.244m33.573 75.993c-.911 1.391-1.386 2.966-1.056 3.5.331.535-.371.972-1.558.972s-3.689 1.53-5.559 3.4c-2.774 2.774-3.4 4.164-3.4 7.55 0 5.288 2.231 9.601 5.967 11.533 9.628 4.979 21.1-3.642 18.113-13.611-1.261-4.208-6.173-8.872-9.344-8.872-2.01 0-1.982-.133.577-2.805 3.304-3.449 3.358-4.195.302-4.195-1.448 0-3.036.994-4.042 2.528m59.713 4.164c-3.076.608-8.038 5.47-8.839 8.662-1.972 7.86 4.05 15.646 12.102 15.646 11.482 0 16.798-15.381 7.569-21.902-2.915-2.059-7.468-3.071-10.832-2.406M26 127v12h2.5c2.241 0 2.5-.406 2.5-3.912 0-3.784.131-3.934 3.996-4.587 7.318-1.237 10.315-8.281 5.549-13.046-2.064-2.065-3.414-2.455-8.5-2.455H26v12m23.114-9.816c-.488 1.274-2.513 6.341-4.501 11.26-1.987 4.92-3.613 9.307-3.613 9.75 0 .443 1.135.806 2.521.806 1.72 0 2.884-.796 3.661-2.5.95-2.086 1.831-2.5 5.318-2.5 3.487 0 4.368.414 5.318 2.5.777 1.704 1.941 2.5 3.661 2.5 1.386 0 2.521-.357 2.521-.794 0-.437-1.979-5.724-4.397-11.75-3.888-9.686-4.699-10.993-7-11.272-1.96-.239-2.821.255-3.489 2M62 117.5c0 2.111.467 2.5 3 2.5h3V139.133l2.75-.317 2.75-.316.288-9.25.287-9.25h2.963c2.493 0 2.962-.396 2.962-2.5 0-2.481-.067-2.5-9-2.5s-9 .019-9 2.5m20 9.566v12.067l2.75-.317c2.426-.279 2.809-.819 3.25-4.58l.5-4.264 2.842 4.514c2.308 3.666 3.388 4.514 5.75 4.514 3.556 0 3.56-.473.049-5.386l-2.778-3.886 2.319-2.319c3.001-3.001 2.948-6.87-.137-9.954-2.064-2.065-3.414-2.455-8.5-2.455H82v12.066m20.623-11.265c-.272.441-.411 5.728-.309 11.75l.186 10.949 2.75.316 2.75.317V115h-2.441c-1.343 0-2.664.361-2.936.801m9.595 10.949l.282 11.75 2.75.316 2.75.317.009-6.817.009-6.816 3.148 6.75c2.062 4.422 3.729 6.75 4.834 6.75 1.105 0 2.772-2.328 4.834-6.75l3.148-6.75.009 6.816.009 6.817 2.75-.317 2.75-.316.282-11.812.283-11.813-3.671.313c-3.528.3-3.798.602-6.955 7.787l-3.285 7.474-3.52-7.724c-3.438-7.544-3.604-7.725-7.109-7.725h-3.588l.281 11.75M171 127v12h2.5c2.448 0 2.5-.159 2.5-7.61v-7.61l5.263 7.36c4.041 5.651 5.898 7.433 8 7.676l2.737.317v-24.266l-2.75.317c-2.693.309-2.75.454-2.75 6.973 0 3.661-.24 6.508-.534 6.325-.293-.183-2.539-3.291-4.992-6.907-3.684-5.433-4.937-6.575-7.216-6.575H171v12m25.218-.25l.282 11.75 2.75.316 2.75.317V115H195.937l.281 11.75M31 122.5c0 2.282.366 2.591 2.75 2.316 1.978-.227 2.75-.878 2.75-2.316 0-1.438-.772-2.089-2.75-2.316-2.384-.275-2.75.034-2.75 2.316m57 0c0 2.165.404 2.582 2.25 2.32 1.477-.21 2.25-1.007 2.25-2.32s-.773-2.11-2.25-2.32c-1.846-.262-2.25.155-2.25 2.32m62.655-.671c-2.004 2.214-2.155 7.105-.297 9.647 1.971 2.694 7.467 2.458 9.798-.42 2.39-2.951 2.33-5.169-.229-8.421-2.465-3.135-6.822-3.514-9.272-.806M213 122c-4.123 4.123-1.273 11.25 4.5 11.25s8.623-7.127 4.5-11.25c-1.1-1.1-3.125-2-4.5-2s-3.4.9-4.5 2m-161.85 4c-.973 2.79-.878 3 1.35 3s2.323-.21 1.35-3c-.575-1.65-1.183-3-1.35-3-.167 0-.775 1.35-1.35 3M37 159.044v12.044l7.25-.294c6.485-.263 7.25-.505 7.25-2.294 0-1.638-.769-2.056-4.25-2.307-3.756-.272-4.25-.592-4.25-2.75 0-2.19.421-2.443 4.07-2.443 3.648 0 4.036-.233 3.75-2.25-.257-1.807-1.058-2.311-4.07-2.56-2.938-.244-3.75-.731-3.75-2.25 0-1.597.708-1.94 4-1.94 3.6 0 4-.25 4-2.5 0-2.429-.2-2.5-7-2.5h-7v12.044m19.073-9.409c-3.693 4.694-2.149 8.546 4.581 11.431 2.618 1.122 4.338 2.459 4.096 3.184-.653 1.964-3.716 2.09-5.763.238-1.685-1.525-2.075-1.54-4.044-.161l-2.18 1.527 2.573 2.573c3.531 3.531 9.742 3.586 13.209.118 4.285-4.284 2.34-9.407-4.632-12.196-2.152-.862-3.913-1.981-3.913-2.489 0-1.743 3.076-2.101 4.787-.558 1.424 1.285 2.011 1.327 3.48.249 3.584-2.629-.385-6.551-6.629-6.551-2.582 0-4.033.687-5.565 2.635m21.07-.102c-6.242 5.252-6.222 13.698.044 18.971 2.772 2.333 3.742 2.543 10.518 2.283 7.865-.302 10.504-1.626 8.369-4.198-.801-.965-.839-1.616-.123-2.059 1.642-1.015 1.231-9.323-.599-12.116-3.802-5.802-13.007-7.258-18.209-2.881m22.857 6.39c0 8.141.227 9.193 2.589 12 2.178 2.588 3.297 3.077 7.045 3.077 3.399 0 5.04-.583 6.911-2.455 2.264-2.263 2.455-3.198 2.455-12 0-9.515-.008-9.545-2.5-9.545-2.446 0-2.5.162-2.5 7.566 0 8.209-1.082 11.434-3.835 11.434-3.325 0-4.165-2.158-4.165-10.7V147h-6v8.923M123 159v12h7.5c7.333 0 7.5-.056 7.5-2.5 0-2.296-.367-2.5-4.5-2.5s-4.5-.204-4.5-2.5c0-2.25.4-2.5 4-2.5s4-.25 4-2.5-.4-2.5-4-2.5c-3.333 0-4-.333-4-2 0-1.704.667-2 4.5-2 4.133 0 4.5-.204 4.5-2.5 0-2.444-.167-2.5-7.5-2.5H123v12m20.4-8.6c-2.995 2.995-3.4 4.02-3.4 8.6s.405 5.605 3.4 8.6c2.738 2.738 4.182 3.4 7.418 3.4 5.771 0 7.182-.797 7.182-4.055 0-2.738-.111-2.802-3.078-1.768-3.9 1.36-7.583-.154-8.917-3.665-2.117-5.568 3.295-11.063 8.542-8.673 3.441 1.568 3.453 1.563 3.453-1.732 0-3.315-1.386-4.107-7.182-4.107-3.236 0-4.68.662-7.418 3.4M161 159v12h6v-24h-6v12m10 0v12l5.75-.004c10.643-.007 16.804-6.722 14.06-15.328-1.869-5.863-6.387-8.668-13.958-8.668H171v12m28.763-10.435c-3.569 1.936-5.763 6.31-5.763 11.485 0 3.386.626 4.776 3.4 7.55 2.964 2.964 4.044 3.4 8.423 3.4 12.098 0 17.234-13.726 8.034-21.467-3.499-2.944-9.671-3.368-14.094-.968m-119.308 5.89c-1.35 1.35-2.455 3.314-2.455 4.365 0 3.064 3.838 7.18 6.695 7.18 2.026 0 2.32-.277 1.431-1.348-.852-1.027-.666-1.758.778-3.065 1.399-1.266 2.091-1.403 2.635-.524 1.299 2.103 2.577-1.629 1.514-4.423-1.876-4.934-6.829-5.955-10.598-2.185M177 159.282v6.935l2.75-.651c3.12-.739 6.25-3.971 6.25-6.454 0-2.871-2.825-5.859-5.975-6.322l-3.025-.444v6.936m25.223-5.725c-3.125 2.189-3.125 8.697 0 10.886 1.222.856 3.042 1.557 4.045 1.557 2.476 0 6.732-4.425 6.732-7s-4.256-7-6.732-7c-1.003 0-2.823.701-4.045 1.557" fill="#1976D2" fill-rule="evenodd"/></svg>