<svg xmlns="http://www.w3.org/2000/svg" width="256" height="256"><path fill-opacity=".016" d="M0 128.004v128.004l128.25-.254 128.25-.254.254-127.75L257.008 0H0v128.004m.485.496c0 70.4.119 99.053.265 63.672.146-35.38.146-92.98 0-128C.604 29.153.485 58.1.485 128.5" fill="#1976D2" fill-rule="evenodd"/><path fill-opacity=".466" d="M38.086 11.397c-.721.868-1.029 2.308-.687 3.202.432 1.123.193 1.458-.773 1.088-1.892-.726-5.885 2.195-5.253 3.844.28.727-.14 1.861-.932 2.518-.793.658-1.441 1.846-1.441 2.641 0 .905-.653 1.253-1.75.93-.962-.283-4.45-1.198-7.75-2.032-3.3-.835-8.658-2.434-11.907-3.553C4.345 18.916 1.275 18 .771 18c-.981 0-.324 78.78.664 79.769.311.31.565 1.416.565 2.457 0 1.04.45 1.614 1 1.274.658-.407.996 9.404.989 28.691-.012 34.382 1.923 101.965 2.952 103.086.777.847 19.4 4.947 30.52 6.719 3.829.611 7.429 1.469 8 1.908.572.439 5.815 1.565 11.653 2.502 9.675 1.552 11.401 1.569 19.5.196 24.085-4.084 73.381-8.929 138.886-13.65 8.8-.634 21.13-1.67 27.4-2.302l11.4-1.15-.157-48c-.087-26.4-.444-60.942-.796-76.761-.604-27.255-.539-28.869 1.244-30.84 1.68-1.856 1.716-2.204.334-3.239-.852-.638-1.824-1.894-2.16-2.791-.531-1.418-3.583-1.705-23.438-2.203-25.04-.629-29.192-1.117-30.083-3.541-.989-2.687-2.388-3.093-10.744-3.121-11.557-.038-15.5-.843-15.5-3.166 0-1.046-.672-2.159-1.494-2.474-.822-.316-1.246-.976-.941-1.469.304-.492-.149-.895-1.006-.895S168 49.45 168 50s-1.098 1-2.441 1c-1.343 0-2.648.337-2.902.75-.253.412-4.442.525-9.309.25-8.493-.48-8.838-.592-8.604-2.784.139-1.301-.411-2.535-1.28-2.868-.985-.378-1.304-1.276-.903-2.542.531-1.671.207-1.909-2.22-1.631-2.049.234-2.76.808-2.551 2.059.194 1.16-.187 1.551-1.152 1.18-.902-.345-2.123.598-3.256 2.516-1.482 2.509-2.459 3.068-5.348 3.061-6.892-.017-58.728-9.326-60.25-10.82-.394-.387-.83-2.196-.969-4.019-.307-4.025-1.47-4.688-9.815-5.597-12.315-1.341-12-1.168-12-6.613 0-3.994-.353-4.919-2.085-5.469-1.561-.495-1.943-1.225-1.521-2.906.309-1.234-.014-3.032-.718-3.996-1.161-1.587-1.404-1.604-2.59-.174m71.178 64.321c1.52.229 3.77.223 5-.014 1.23-.237-.014-.425-2.764-.418-2.75.008-3.756.202-2.236.432M99 81c0 .55 1.912 1.021 4.25 1.047 2.338.026 6.388.238 9 .47 6.119.543 6.213-1.045.11-1.881C105.459 79.69 99 79.866 99 81m.42 22.5c-.001 11 .145 15.636.325 10.303.179-5.333.18-14.333.001-20-.178-5.667-.325-1.303-.326 9.697m49.985 4c.001 8.8.154 12.266.34 7.703.185-4.564.184-11.764-.003-16-.187-4.237-.338-.503-.337 8.297M117.158 121c0 1.375.227 1.938.504 1.25.278-.687.278-1.812 0-2.5-.277-.687-.504-.125-.504 1.25" fill="#1976D2" fill-rule="evenodd"/><path fill-opacity=".089" d="M37.406 13.152c-.391.633.124 1.763 1.146 2.51 1.583 1.157 1.983 1.134 2.707-.16 1.573-2.811-2.161-5.088-3.853-2.35m-4.156 3.51c-.687.278-1.25 1.341-1.25 2.362 0 1.022-.45 2.136-1 2.476-.55.34-1 1.491-1 2.559S29.353 26 28.562 26c-2.573 0-13.888-2.879-21.459-5.459l-7.397-2.522.652 21.241c.873 28.426.978 50.738.242 51.473-1.666 1.666.216 8.558 2.855 10.453.574.412 1.236 23.401 1.657 57.5.386 31.248 1.03 60.936 1.432 65.974l.729 9.16 16.614 3.115c9.137 1.713 18.188 3.587 20.113 4.164 1.925.577 7.873 1.84 13.219 2.806 9.634 1.743 15.276 1.722 16.377-.06.33-.535-.52-.651-2.012-.277-2.46.618-2.584.454-2.584-3.401 0-2.227.434-4.317.964-4.645.53-.327 4.467-.851 8.75-1.163 4.282-.313 10.095-.786 12.917-1.052 4.521-.426 5.324-.209 6.75 1.827 2.273 3.244 2.098 3.639-2.131 4.813-6.442 1.789-10.048 1.38-10.544-1.197-.372-1.929-.453-1.858-.57.5-.112 2.269-.617 2.77-2.886 2.866-1.589.067-2.034.305-1.053.563.933.246 6.783-.245 13-1.091 13.202-1.796 46.144-5.207 59.803-6.191 5.225-.377 10.175-.811 11-.964.825-.154 3.439-.314 5.809-.356 2.606-.047 4.064-.473 3.69-1.078-.381-.617-3.289-.754-7.559-.357-5.133.477-6.94.329-6.94-.57 0-.802-.534-.681-1.571.357-1.842 1.841-1.958 1.853-6.172.645-1.982-.569-3.451-.569-3.803 0-1.005 1.627-2.454.994-2.454-1.074 0-1.1-.45-2-1-2s-1 .873-1 1.941c0 2.642-.502 2.832-8.511 3.22-6.955.337-6.991.326-7.302-2.376-.249-2.158.162-2.814 2-3.195 3.236-.672 26.94-2.084 35.027-2.087 5.951-.003 6.746-.23 7-2.003.174-1.22 1.048-2 2.241-2 1.726 0 1.922.612 1.676 5.24l-.278 5.239 2.823-.479c1.553-.264 15.199-1.386 30.324-2.495 15.125-1.108 29.863-2.27 32.75-2.582l5.25-.567v-4.045c0-3.614.223-3.986 2.096-3.496 3.9 1.02 4.904-.189 4.904-5.903 0-4.842-.238-5.434-2.406-5.978-2.019-.506-4.251-4.111-3.197-5.164.929-.93 3.603 1.219 3.603 2.896 0 1.074.373 1.722.828 1.44.455-.281.64-29.445.41-64.809-.373-57.463-.587-64.43-2.019-65.547-1.459-1.139-1.451-1.25.09-1.25 1.033 0 1.691-.79 1.691-2.031 0-1.118.675-2.291 1.5-2.607 1.986-.762 1.922-2.362-.094-2.362-.876 0-1.829-.9-2.116-2-.488-1.866-1.368-2.001-13.157-2.009-12.205-.008-32.728-1.383-38.383-2.572-1.845-.388-2.75-1.21-2.75-2.498 0-1.697-.844-1.947-7.25-2.143-10.026-.307-16.024-.536-17.5-.667-.687-.061-1.25-1.236-1.25-2.611 0-1.532-.569-2.5-1.469-2.5-.894 0-1.243-.586-.893-1.5.317-.825.078-1.5-.531-1.5S168 49.633 168 50.406c0 .886-.698 1.224-1.887.913-1.038-.271-2.19-.004-2.559.594-.731 1.182-9.799 1.438-15.804.445-3.04-.502-3.75-1.046-3.75-2.872 0-1.469-.753-2.45-2.164-2.819-1.843-.482-1.971-.8-.858-2.141 1.513-1.823.773-3.028-1.357-2.211-.873.335-1.261 1.347-.959 2.501.427 1.631.094 1.86-2.092 1.442-2.088-.399-2.477-.178-1.977 1.123.413 1.078.084 1.619-.986 1.619-.884 0-1.607.609-1.607 1.353 0 1.796-5.439 1.309-29-2.599-10.175-1.688-19.931-3.117-21.68-3.175-1.749-.058-3.48-.406-3.848-.773-.367-.368-1.253-.444-1.969-.169-.715.275-1.602.011-1.971-.585-.369-.597-1.109-.814-1.645-.482-.536.331-1.517.162-2.181-.376-.663-.538-2.047-1.14-3.074-1.336-1.363-.261-1.961-1.407-2.214-4.239-.19-2.134-.543-4.077-.784-4.318-.24-.241-3.744-.867-7.786-1.391-12.282-1.594-12.008-1.46-11.656-5.694.289-3.488.019-3.884-4.407-6.466-2.593-1.512-4.843-2.714-5-2.671-.157.043-.847.306-1.535.583M169 55.5c0 1.375.388 2.5.861 2.5.474 0 .647-1.125.384-2.5s-.651-2.5-.862-2.5c-.21 0-.383 1.125-.383 2.5M65 58.031c0 .533.675.969 1.5.969s1.5-.177 1.5-.393c0-.216-.675-.652-1.5-.969-.825-.316-1.5-.139-1.5.393m9.75-.369c.688.278 1.813.278 2.5 0 .688-.277.125-.504-1.25-.504s-1.937.227-1.25.504m7.063 1.021c.721.289 1.584.253 1.916-.079.332-.332-.258-.568-1.312-.525-1.165.048-1.402.285-.604.604m6 0c.721.289 1.584.253 1.916-.079.332-.332-.258-.568-1.312-.525-1.165.048-1.402.285-.604.604M78.5 60c.34.55 1.068 1 1.618 1s.722-.45.382-1c-.34-.55-1.068-1-1.618-1s-.722.45-.382 1m15.398.81c.665 1.243 2.321 1.887 5.285 2.057 2.374.137 5.667.405 7.317.596 1.65.191 8.4.853 15 1.471 6.6.617 12.675 1.394 13.5 1.725.825.332 5.235.702 9.801.823 8.473.224 12.181 1.654 9.191 3.544-1.572.994-.748 1.338 2.398 1.003 1.266-.136 1.71.267 1.346 1.218-.307.798.051 1.42.815 1.42.749 0 1.09-.488.758-1.084-.357-.643-.091-.61.657.08 1.898 1.752.366 3.253-2.53 2.478-3.838-1.026-10.436-.153-10.436 1.381 0 .721.338 1.5.75 1.731.412.23.13.26-.627.066s-1.989.155-2.737.776-2.045.866-2.882.545c-2.134-.819-6.753 1.115-6.248 2.616.507 1.508 5.927 1.035 6.979-.608.503-.786.776-.675.865.352.072.825.235 1.95.363 2.5s.308 1.45.4 2c.092.55.56.38 1.041-.378 1.778-2.808 3.096.106 3.096 6.843 0 6.355-.144 6.81-2 6.325-1.1-.288-2.056-.921-2.125-1.407-.069-.485-.181-1.357-.25-1.936-.191-1.61-4.666-5.947-6.136-5.947-.807 0-1.143-.855-.884-2.25.229-1.237.15-1.687-.177-1-.327.688-1.237 1.25-2.021 1.25-.785 0-2.163.86-3.064 1.912-.946 1.105-2.299 1.658-3.206 1.31-1.039-.398-.825.197.636 1.764 2.454 2.635 3.749 5.825 2.765 6.81-.355.354-2.309.558-4.342.453l-3.696-.191 2.925 1.342c2.849 1.309 2.87 1.372.822 2.468-1.156.619-2.743.879-3.526.578-1.029-.395-1.396.207-1.323 2.172.094 2.513 2.602 4.89 2.602 2.465 0-.596-.45-1.083-1-1.083s-1-.478-1-1.063c0-.584.861-.922 1.913-.75 1.057.173 2.815-.726 3.93-2.01 2.473-2.846 7.844-2.793 7.363.073-.161.963.204 1.75.811 1.75.75 0 .881-1.526.405-4.75-.649-4.406-1.294-5.501-3.922-6.658-.564-.248-.367-.88.452-1.45 1.727-1.201 3.365-.463 2.408 1.085-.439.71.076.892 1.484.524 2.223-.581 2.578.317 2.35 5.947-.066 1.628.352 2.061 1.608 1.669 1.379-.431 1.333-.233-.243 1.051-1.92 1.564-1.919 1.582.027 1.582 1.083 0 2.969.701 4.191 1.557 1.934 1.354 2.223 2.458 2.223 8.5V123h3c2.196 0 2.996-.469 2.985-1.75-.012-1.367-.204-1.452-.878-.389-1.006 1.587-1.894-3.901-1.718-10.612.061-2.338-.282-4.25-.761-4.25-.48.001-.349-.63.291-1.402.894-1.077.865-1.523-.127-1.924-1.006-.405-.96-.755.208-1.582 1.017-.719 1.097-1.065.25-1.076-.687-.008-1.25-1.103-1.25-2.432s.563-2.643 1.25-2.921c1-.403 1-.52 0-.583-.803-.051-1.25-1.688-1.25-4.579 0-4.939-.099-4.887 7.339-3.867l4.618.633.271 18.369c.169 11.431.65 18.354 1.272 18.33.554-.021.916-2.254.812-5.002-.104-2.729.248-4.963.782-4.963s1.418-1.013 1.965-2.25c.875-1.98.938-1.878.522.854-.26 1.707.004 3.581.586 4.163.582.582.727 1.596.321 2.253-.557.9-.949.86-1.598-.163-.66-1.043-.863-.931-.875.483-.008 1.012.997 2.684 2.235 3.716 1.238 1.033 1.688 1.892 1 1.911-.687.018-1.25-.417-1.25-.967s-.505-1-1.122-1c-.791 0-.765.431.086 1.456.664.801.964 1.851.666 2.334-.299.483-.811 2.402-1.139 4.264-.329 1.862-.782 3.571-1.009 3.797-.226.227.054 1.282.623 2.344.728 1.362.699 2.336-.098 3.296-.9 1.085-.601 1.43 1.462 1.687 1.426.177 2.66.772 2.741 1.322.231 1.564-3.371 1.854-4.325.348-.563-.888-.86-.946-.87-.169-.008.648.578 1.773 1.303 2.5 1.092 1.095-2.034 1.321-18.25 1.321-10.763 0-20.13-.364-20.818-.809-1.718-1.112-1.571-2.691.25-2.691.833 0 1.5-.889 1.5-2 0-1.699-.667-2-4.434-2-4.093 0-4.457.211-4.75 2.75-.28 2.441-.727 2.75-3.972 2.75-2.01 0-3.446.338-3.191.75.256.412-1.362.75-3.594.75-2.572 0-4.065-.458-4.074-1.25-.011-.878-.234-.919-.75-.135-.404.614-1.748 1.431-2.985 1.818-1.237.386-2.25 1.009-2.25 1.384 0 .376-2.339.824-5.197.995-2.858.172-5.664.602-6.235.955-1.713 1.059-7.962.181-9.525-1.337-1.083-1.052-1.167-1.706-.328-2.545 1.63-1.63.428-3.885-2.072-3.885-1.954 0-2.14.523-2.104 5.922.036 5.54-.086 5.856-1.885 4.893-1.561-.836-1.663-1.198-.539-1.922 1.166-.752 1.148-1.046-.115-1.862-1.153-.746-1.248-1.382-.408-2.75 1.344-2.193.742-4.281-1.234-4.281-.812 0-1.198-.45-.858-1 .34-.55-.084-1-.941-1-.919 0-1.559.865-1.559 2.107 0 1.314.487 1.92 1.295 1.61.769-.295 1.356.306 1.445 1.478.101 1.343-.314 1.799-1.296 1.422-1.19-.457-1.43.89-1.365 7.664.043 4.521.308 7.651.587 6.958.28-.694 1.412-1.745 2.516-2.336 1.623-.869 2.465-.643 4.408 1.182 1.321 1.241 2.738 1.921 3.148 1.511.41-.41-.038-1.185-.996-1.721-1.893-1.059-2.351-4.381-.742-5.375.563-.348 1 .458 1 1.847 0 1.932.412 2.358 1.904 1.968 2.618-.685 3.565 2.745 1.974 7.146-1.169 3.232-3.878 5.683-3.878 3.508a.972.972 0 00-.969-.969c-.532 0-.795.563-.583 1.25 1.246 4.044 1.475 6.75.571 6.75-.56 0-1.026-1.238-1.034-2.75-.009-1.512-.459-3.425-1-4.25-.876-1.333-1.105-1.333-2.061 0-.81 1.129-1.202 1.191-1.583.25-.927-2.283-2.225-1.292-1.966 1.5.166 1.792.755 2.638 1.69 2.429 1.15-.258 1.187-.069.185.95-1.931 1.964-1.485 2.968 1.039 2.335 1.259-.316 3.622-.02 5.25.659 2.76 1.15 2.81 1.26.728 1.623-1.637.285-2.182 1.012-2.04 2.723.136 1.646.715 2.235 1.963 1.994.973-.187 1.666.184 1.54.825-.127.64.819 1.324 2.101 1.518 2.212.336 2.238.426.5 1.742-1.007.764-2.688 1.403-3.736 1.42-1.776.03-1.794.155-.264 1.846 1.24 1.37 1.36 2.095.488 2.967-.871.871-.807 1.26.264 1.59 4.914 1.515 5.226 1.72 4.192 2.754-.747.747-1.683.727-3.168-.068-1.393-.745-2.107-.776-2.107-.092 0 .569.661 1.035 1.469 1.035.946 0 1.268.622.905 1.75-.422 1.311-.323 1.415.394.414.526-.735 2.031-1.185 3.344-1 2.401.338 2.61-.189 1.355-3.414-.398-1.023-.221-1.75.426-1.75 1.501 0 1.404-3.298-.143-4.871-1.008-1.025-.669-1.144 1.75-.619 1.939.421 2.541.327 1.703-.267-1.043-.739-.994-1.172.25-2.204 1.298-1.077 1.547-.996 1.547.505 0 .984.273 1.516.607 1.183.842-.842 3.302 1.577 2.667 2.623-.283.467.468.323 1.67-.32 1.702-.911 1.934-1.472 1.051-2.536-.85-1.024-.816-1.945.135-3.68 1.342-2.448 1.267-6.721-.144-8.192-.464-.483-.312-1.735.336-2.781.928-1.499.89-2.081-.179-2.747-.945-.588-1.021-1.051-.25-1.528 1.643-1.015 1.341-2.576-.393-2.035-.825.258-2.15.67-2.945.917-1.113.344-1.243 1.153-.564 3.519.541 1.889.52 2.849-.055 2.493-.515-.318-.936-1.226-.936-2.019 0-.793-.398-1.441-.883-1.441-1.395 0-2.001-3.716-.801-4.916 1.414-1.414 2.999-1.403 2.122.016-.472.765-.027.751 1.462-.046 1.178-.631 2.582-.874 3.121-.541.538.333.979.155.979-.395 0-1.67-2.005-2.359-3.427-1.179-1.02.847-1.499.696-2.01-.635-.573-1.494-.806-1.534-1.601-.276-.512.81-.938 1-.947.422-.024-1.648 2.097-3.344 3.506-2.804 1.58.607 2.894-1.271 1.495-2.136-.559-.345-1.016-.166-1.016.4 0 .565-.705.757-1.567.426-1.111-.426-1.257-.912-.5-1.669C90.52 157.08 91 156.24 91 155.8c0-1.296-2.792-.914-3.288.45-.362.994-.84.987-2.333-.034-1.034-.706-3.566-2.012-5.629-2.902-4.98-2.148-4.772-3.331.382-2.173 2.273.511 4.374.686 4.67.39.296-.296 1.587.149 2.868.989 2.445 1.602 3.186.736 1.129-1.321-.888-.888-.497-.875 1.501.05 1.485.688 2.514 1.75 2.286 2.359-.623 1.665 23.795 1.151 25.836-.544 1.29-1.07 1.66-1.015 2.173.323.341.887 1.246 1.613 2.012 1.613s1.393.9 1.393 2-.477 2-1.059 2-.807.408-.498.908c.308.499.182 1.93-.28 3.181-.826 2.233-.859 2.222-1.864-.658l-1.023-2.931H98.5l-.197 22.364c-.109 12.3-.382 22.548-.607 22.774-.894.893-3.528-.887-4.004-2.707-.278-1.062-1.013-1.931-1.634-1.931-.806 0-.833.553-.092 1.937.955 1.784.76 1.893-2.464 1.37-2.667-.433-3.502-.22-3.502.895 0 1.488-1.129 1.828-6.5 1.96l-3 .073 2.75 1.076c3.448 1.348 3.609 3.086.226 2.44-1.388-.266-2.765-.093-3.059.383-.537.869.922 1.261 3.421.921.918-.126 1.132.465.682 1.881-.382 1.205-.211 2.064.413 2.064.587 0 1.067-.45 1.067-1s.675-1 1.5-1c1.84 0 2.052-4.581.25-5.405-.687-.314.316-.293 2.23.047 3.257.578 3.386.503 2-1.175-1.246-1.509-1.254-1.718-.051-1.32.785.26 1.91 1.345 2.5 2.413a120.32 120.32 0 001.331 2.367c.144.235.922-.44 1.731-1.5 1.274-1.669 1.605-1.726 2.475-.427.732 1.095 1.008 1.146 1.019.191.008-.72.465-1.031 1.015-.691.55.34 1 2.166 1 4.059 0 2.086.492 3.441 1.25 3.442.974.001 1.181-5.268.936-23.847l-.314-23.848 2.653-3.153c3.546-4.215 7.381-4.242 10.886-.076l2.589 3.076v23.365c0 21.4.564 26.614 2.534 23.427.37-.598.643-7.018.608-14.266-.042-8.471.249-12.422.815-11.061.978 2.353 6.237 4.051 5.345 1.726-.3-.782.156-1.344 1.091-1.344.884 0 1.607-.436 1.607-.969 0-.532-.697-.701-1.548-.374-.894.343-2.148-.199-2.968-1.282-.781-1.031-1.435-1.505-1.452-1.054-.018.452-.69.164-1.494-.64-1.083-1.083-1.235-2.252-.585-4.516.606-2.115.518-3.206-.289-3.546-.742-.313-.349-1.206 1.086-2.465 1.237-1.086 2.25-2.465 2.25-3.064 0-.6.563-.977 1.25-.84.721.144 1.216-.703 1.171-2-.044-1.245.514-2.25 1.25-2.25.731 0 1.329-.664 1.329-1.475 0-1.173.529-1.274 2.584-.493 1.421.54 2.991.731 3.488.423.498-.307.623.176.278 1.075-.543 1.416.025 1.562 4.262 1.093 2.688-.297 4.101-.301 3.138-.008-2.66.808-2.089 2.385.863 2.385 2.378 0 2.571.292 2.139 3.236-.261 1.779-.021 3.961.533 4.849.554.887.697 2.852.316 4.367-.635 2.532-.974 2.701-4.217 2.092-1.939-.364-4.282-.947-5.205-1.297-1.572-.595-1.572-.527 0 1.059.923.932 2.883 1.694 4.357 1.694 1.983 0 2.521.389 2.071 1.5l-1.214 3c-.383.947-.039 1.5.933 1.5.846 0 1.848-.973 2.226-2.163 1.335-4.208 2.527.772 3.15 13.162.332 6.601.985 12.001 1.451 12.001.466 0 .847-10.554.847-23.453 0-15.794.383-24.293 1.171-26.024 1.643-3.604 5.436-4.36 8.17-1.628 2.036 2.035 2.21 3.526 3.051 26.132.851 22.853 1.639 28.331 2.932 20.367.321-1.984 1.392-4.197 2.378-4.918 1.706-1.247 1.688-1.403-.362-3.181-1.185-1.028-2.206-2.977-2.268-4.332-.282-6.122-.789-22.163-.924-29.213-.081-4.262-.486-7.697-.898-7.632-.412.066-.975.028-1.25-.083-1.456-.59-12-.428-12 .184 0 .395-.639.473-1.42.173-.926-.355-1.561.266-1.822 1.782-.392 2.273-.428 2.262-1.579-.489-1.687-4.03-1.455-7.358.571-8.19.963-.395 6.25-.913 11.75-1.15 5.5-.238 11.397-.876 13.104-1.418 1.706-.542 4.13-1.183 5.385-1.425s2.508-.666 2.785-.943c.904-.904-4.989-2.626-6.906-2.017-1.282.407-1.868.101-1.868-.975 0-.862.505-1.567 1.122-1.567.791 0 .765-.431-.086-1.456-.664-.801-.93-1.906-.59-2.457.915-1.481 3.332-.222 3.183 1.659-.087 1.09 1.018 1.866 3.361 2.362 3.661.774 6.01-.293 6.01-2.73 0-.758.408-1.378.906-1.378.499 0 .69 1.012.426 2.25-.445 2.086-.376 2.123.954.5.789-.963 2.06-1.78 2.824-1.818.765-.037.378-.556-.86-1.152-1.238-.597-2.25-1.477-2.25-1.956 0-.478 1.133-.128 2.517.779 1.883 1.234 2.249 1.974 1.452 2.934-1.537 1.853.351 2.672 3.447 1.495 2.02-.768 2.584-.675 2.584.425 0 1.501 3.416 3.022 4.827 2.15.941-.582.891-4.222-.071-5.184-.34-.34-.387-1.222-.103-1.96.283-.738-.36-1.888-1.429-2.555-1.587-.991-1.854-2.013-1.454-5.561.407-3.607.203-4.347-1.199-4.347-.929 0-1.397-.472-1.041-1.049.441-.713 1.113-.662 2.101.158 1.041.863 1.761.899 2.533.127.594-.594 1.651-.86 2.35-.592 1.009.387 1.176-3.234.81-17.578-.513-20.166-.975-18.946 6.595-17.432l3.168.633-.293 17.368c-.162 9.552.044 17.367.456 17.366.776-.001 1.126-8.154.891-20.751-.101-5.435.198-7.25 1.195-7.25.732 0 1.331-.668 1.331-1.484 0-1.124-.324-1.215-1.334-.378-1.04.863-1.333.64-1.333-1.016 0-1.167.436-2.122.969-2.122.532 0 .709-.675.393-1.5-.317-.825-.078-1.5.531-1.5s1.107.675 1.107 1.5c0 .833.889 1.5 2 1.5 1.1 0 2-.436 2-.969 0-.532.675-.709 1.5-.393.904.347 1.5.006 1.5-.858 0-.996-.841-1.31-2.757-1.029-3.348.491-7.785-2.896-6.881-5.253.775-2.018-2.412-3.123-8.362-2.9-4.189.156-4.481.344-4.224 2.71.314 2.892-1.403 4.465-3.063 2.805-.817-.817-.661-1.113.587-1.113 2.091 0 2.185-1.373.228-3.329-1.296-1.296-1.228-1.783.573-4.072 1.915-2.435 1.929-2.6.222-2.621-1.552-.019-1.451-.331.677-2.093 1.443-1.196 1.801-1.85.848-1.547-.909.288-1.95.227-2.314-.137-.364-.364-2.32-.742-4.348-.84-2.027-.097-3.686-.25-3.686-.338 0-.266-5.682-1.027-11-1.473-2.75-.231-5-.499-5-.596 0-.097-1.8-.311-4-.474-2.2-.163-4-.4-4-.526 0-.127-2.025-.347-4.5-.49-2.475-.142-4.5-.367-4.5-.5 0-.132-1.805-.31-4.011-.395-2.205-.085-4.455-.422-5-.748-.544-.326-2.901-.479-5.239-.339-2.338.139-4.25-.119-4.25-.574 0-.455-1.238-.807-2.75-.782-5.031.083-17.029-.871-17.926-1.426-.486-.3-3.233-.426-6.104-.279-2.871.147-5.22-.166-5.22-.694 0-.528-.952-.711-2.115-.407-1.164.304-3.022.019-4.131-.633-1.574-.927-2.114-.913-2.468.063-.249.688-1.342 1.25-2.428 1.25-1.087 0-1.698-.45-1.358-1 .34-.55-.099-1-.976-1-1.229 0-1.372.415-.626 1.81M90.5 61c-.34.55.11 1 1 1s1.34-.45 1-1c-.34-.55-.79-1-1-1-.21 0-.66.45-1 1m-25.179 7.504c-.098 1.923.287 3.496.857 3.496.57 0 .751.743.402 1.651-.804 2.095 2.745 5.545 4.867 4.731.854-.328 1.553-1.046 1.553-1.596s-.661-.746-1.468-.437c-1.792.688-2.162.14-3.031-4.493-.625-3.329-.446-3.722 2.159-4.747l2.84-1.118-2.774.37c-1.525.204-3.015-.019-3.309-.495-1.101-1.782-1.923-.748-2.096 2.638m44.679.465c0 .532.675.709 1.5.393.825-.317 1.5-.753 1.5-.969 0-.216-.675-.393-1.5-.393s-1.5.436-1.5.969m-3 1.653c0 1.329-.271 1.398-1.5.378-1.036-.86-1.5-.898-1.5-.122 0 .617-.477 1.122-1.059 1.122s-.841-.354-.573-.786c.267-.432-.382-.785-1.441-.785-1.06 0-1.927.353-1.927.785 0 .432-.9.786-2 .786-2.107 0-2.765 1.578-.916 2.195 1.462.487 1.88 7.116.508 8.04-.749.504-.699.739.158.75.959.011 1.25 4.807 1.25 20.598 0 16.027.277 20.489 1.25 20.158.953-.324 1.205-5.214 1.062-20.583L100.125 83H116v19.941c0 12.309.385 20.179 1.007 20.563.554.343 1.292-.118 1.639-1.024.505-1.317.802-1.38 1.478-.314.657 1.036.849.962.861-.333.008-.916-.454-1.823-1.026-2.013-.655-.219-.447-1.54.562-3.561 1.241-2.488 1.346-3.615.466-4.987-1.062-1.654-1.102-1.656-.594-.022.299.963.285 2.425-.031 3.25-1.179 3.072-2.068 1.324-2.24-4.407-.169-5.633-.048-5.951 2.6-6.844 2.72-.916 2.731-.951.528-1.66-3.126-1.006-2.98-4.861.25-6.589 2.453-1.313 3.361-3 1.615-3-1.539 0-3.948-4.561-4.544-8.604-.316-2.143-.305-3.315.025-2.605.437.944 1.109.702 2.501-.903C123.531 77.081 123.504 76 121 76c-1.111 0-2-.667-2-1.5 0-1.078-1.102-1.5-3.918-1.5-5.064 0-7.09-.816-6.412-2.583.299-.779.046-1.417-.563-1.417S107 69.73 107 70.622m-27.015 1.406c-.597 1.115-1.48 1.784-1.963 1.485-.483-.298-1.166.364-1.517 1.472-.352 1.108-1.172 2.029-1.822 2.045-.651.017-.474.446.392.952 1.824 1.067 6.16.207 5.373-1.066-.291-.472.175-2.22 1.037-3.887.861-1.666 1.121-3.029.576-3.029s-1.479.913-2.076 2.028M128 71c0 .55.423 1 .941 1s1.219-.45 1.559-1c.34-.55-.084-1-.941-1S128 70.45 128 71m34.607.582c-1.086 2.83-.643 5.418.928 5.418 1.225 0 1.319.404.465 2-1.327 2.479.022 2.623 2.078.222 1.372-1.602 1.343-1.968-.287-3.686-1.263-1.33-1.466-2.119-.672-2.609 1.185-.733.382-2.927-1.071-2.927-.459 0-1.107.712-1.441 1.582M168 71c-.793.49-1.11 1.223-.704 1.629.405.406 1.262.213 1.904-.429 1.511-1.511.668-2.354-1.2-1.2m-94.988 2.023C74.253 75.341 75 75.56 75 73.607c0-.766-.685-1.656-1.523-1.978-1.243-.476-1.328-.22-.465 1.394M205 72.568c0 .788.787 1.489 1.75 1.56.963.07 2.65.265 3.75.433l5.023.771c1.662.255 7.512.787 13 1.182 5.487.394 10.239.87 10.56 1.057.321.188.584-.314.584-1.115 0-.866-1.047-1.508-2.584-1.584-1.421-.07-3.483-.26-4.583-.423-1.962-.291-11.588-1.299-18.5-1.939-1.925-.178-3.5-.396-3.5-.486 0-.089-1.238-.325-2.75-.525-1.889-.249-2.75.086-2.75 1.069m-24.75 2.928c-.687.781-1.25 2.511-1.25 3.845 0 1.808-.651 2.55-2.558 2.915-1.922.367-2.422.135-2.011-.936.3-.783.168-1.19-.295-.904-.463.286-1.678-.092-2.701-.84-1.578-1.154-1.658-1.603-.525-2.968S172 75 170.622 75c-.895 0-1.622.806-1.622 1.8 0 .99-.54 2.34-1.2 3-.898.898-.905 1.2-.031 1.2.642 0 .953.563.69 1.25-.358.935 1.664 1.274 8.031 1.346 7.641.086 8.51-.093 8.51-1.75 0-1.015-.45-1.846-1-1.846s-1 .487-1 1.083-.562.877-1.25.625c-.687-.252-1.093-1.077-.902-1.833.687-2.716 1.186-5.874.922-5.837-.149.021-.832.677-1.52 1.458m11.375.038c-.336.876-1.064 1.313-1.618.97-1.29-.797-1.28.117.028 2.562 1.288 2.406 2.168 2.439 3.608.135.846-1.356.812-2.226-.142-3.53-1.133-1.551-1.328-1.565-1.876-.137M77.5 76c.34.55.816 1 1.059 1s.441-.45.441-1-.477-1-1.059-1-.781.45-.441 1m165.268.168c.582.582 1.647.86 2.369.62.749-.25.295-.703-1.057-1.057-1.663-.435-2.054-.305-1.312.437m-115.955.515c.721.289 1.584.253 1.916-.079.332-.332-.258-.568-1.312-.525-1.165.048-1.402.285-.604.604M132 76.43c0 .275.9.981 2 1.57 1.1.589 2 .845 2 .57s-.9-.981-2-1.57c-1.1-.589-2-.845-2-.57m53.452 1.805c.381 1.246.735 2.828.787 3.515.162 2.145 1.259.211 1.307-2.304.025-1.314-.591-2.633-1.37-2.932-1.074-.412-1.249.005-.724 1.721m-32.639 1.448c.721.289 1.584.253 1.916-.079.332-.332-.258-.568-1.312-.525-1.165.048-1.402.285-.604.604M66.012 80c-.12.275-.414 3.088-.652 6.25-.353 4.693-.15 5.75 1.104 5.75.96 0 1.536-.911 1.536-2.433 0-1.576.724-2.662 2.055-3.084 2.543-.808 2.027-2.874-.822-3.294-1.16-.172-2.311-1.072-2.556-2-.245-.929-.544-1.464-.665-1.189m3.488 1c-.34.55-.029 1.007.691 1.015.72.009 1.918.402 2.662.873C74.568 83.974 72.687 88 70.465 88c-2.631 0-1.253 4.98 1.392 5.033 1.318.027 1.198.405-.607 1.911C70.013 95.976 69 97.536 69 98.41c0 .875-.675 1.59-1.5 1.59-1.083 0-1.5 1.111-1.5 4 0 3.009.399 4 1.608 4 1.231 0 1.456-.608.96-2.584-.42-1.675-.283-2.358.392-1.941.572.354 1.04-.059 1.04-.916S70.675 101 71.5 101c1.083 0 1.5 1.111 1.5 4 0 2.2-.477 4-1.059 4s-.738-.52-.346-1.155c.46-.744.273-.881-.528-.387-1.498.927-.308 2.251 2.433 2.708 1.572.263 1.978-.196 1.896-2.142-.17-4.071 2.913-8.56 5.701-8.299 1.417.132 1.795-.037.921-.411-.815-.35-2.04-1.193-2.721-1.874-.984-.984-.717-1.369 1.304-1.876 1.397-.351 2.385-1.105 2.195-1.676-.19-.571-.785-.892-1.321-.713-.536.179-.872.635-.745 1.014.126.378-.626.524-1.671.322-1.046-.201-2.158.305-2.473 1.125-.314.82-1.056 1.192-1.647.826-1.34-.828 2.066-4.356 3.644-3.775.63.232 1.084-.893 1.084-2.687 0-2.161-.4-2.933-1.334-2.574-2.163.83-1.539-.512 1.658-3.568 2.686-2.567 2.788-2.873 1-3.008-1.095-.083-2.553-.195-3.241-.25-.687-.055-1.138.463-1 1.15.348 1.739-2.242 1.567-3.75-.25-1.446-1.743-2.628-1.911-3.5-.5m95.303 3.25c-.226.688-.54 4.287-.698 8-.213 4.996.048 6.75 1.004 6.75 1.004 0 1.024.267.091 1.2-1.456 1.456-1.582 5.446-.2 6.3.55.34 1.007-.196 1.015-1.191.009-1.08.312-1.377.75-.736.404.59 1.634 1.406 2.733 1.814 1.565.58 1.361.075-.937-2.323-2.328-2.43-2.579-3.064-1.213-3.064 1.435 0 1.537-.347.608-2.082-1.019-1.904-.872-2.054 1.715-1.761 1.9.216 2.742-.102 2.563-.965-.149-.725.466-1.157 1.408-.989 1.103.196 1.931-.64 2.429-2.453.416-1.513.618-2.75.448-2.75-.169 0-1.649 1.254-3.29 2.786-1.64 1.532-3.932 2.785-5.095 2.785-1.956 0-2.091-.466-1.831-6.285.256-5.73-.47-8.169-1.5-5.036m65.277.884c.043 1.301.025 9.116-.038 17.366-.169 21.955-.143 22.5 1.064 22.5.787 0 .933-4.739.507-16.446-.329-9.045-.264-16.632.145-16.86.408-.228 2.42-.205 4.47.052l3.728.468-.06 16.477c-.034 9.063.201 16.74.522 17.06.32.32.582-6.378.582-14.884 0-10.989.362-15.857 1.25-16.814 1-1.077 1-1.205 0-.641-1.202.679-1.795-2.814-1.302-7.662.137-1.348-.583-1.753-3.135-1.764-1.822-.007-4.325-.284-5.561-.616-1.88-.504-2.236-.214-2.172 1.764m-148.97.233c-.863 1.04-.773 1.668.378 2.623 1.284 1.066 1.512.86 1.512-1.368 0-2.985-.293-3.179-1.89-1.255M220 85c0 .55.477 1 1.059 1s.781-.45.441-1-.816-1-1.059-1-.441.45-.441 1m-25.5 1c-.34.55-.141 1 .441 1S196 86.55 196 86s-.198-1-.441-1-.719.45-1.059 1M125 87.5c0 .825.45 1.5 1 1.5s1-.675 1-1.5-.45-1.5-1-1.5-1 .675-1 1.5m6-.5c0 .55 1.012.993 2.25.985 1.819-.013 1.963-.201.75-.985-1.939-1.253-3-1.253-3 0m8.51.016c.346.559 1.047.758 1.559.441 1.387-.857 1.129-1.457-.628-1.457-.857 0-1.276.457-.931 1.016M144.5 90c-1.908.82-1.897.863.25.93 1.238.038 2.25-.38 2.25-.93s-.113-.968-.25-.93c-.137.039-1.15.457-2.25.93m34.01.016c.346.559 1.047.758 1.559.441 1.387-.857 1.129-1.457-.628-1.457-.857 0-1.276.457-.931 1.016M71.5 91c.34.55.816 1 1.059 1s.441-.45.441-1-.477-1-1.059-1-.781.45-.441 1m129.276.556c-.399.399-.48 3.542-.182 6.984.368 4.243.165 6.491-.632 6.984-.878.542-.843.932.141 1.54 1.049.648.945 1.226-.508 2.831-1.681 1.857-1.697 2.146-.21 3.633 1.905 1.905 2.165 4.897.365 4.206-.844-.324-1.219.519-1.155 2.591.098 3.215 2.023 4.833 2.932 2.466.8-2.087.08-32.069-.751-31.235M95.158 94c0 1.375.227 1.938.504 1.25.278-.687.278-1.812 0-2.5-.277-.687-.504-.125-.504 1.25m88.48-.5c.317.825.753 1.5.969 1.5.216 0 .393-.675.393-1.5s-.436-1.5-.969-1.5c-.532 0-.709.675-.393 1.5m-118.085.415c-.322.521-.148 1.217.387 1.548.535.331.719 1.262.409 2.069-.309.807-.065 1.468.544 1.468 1.339 0 1.489-4.646.176-5.457a1.106 1.106 0 00-1.516.372M219.5 94c-1.362.585-1.521.892-.5.961 1.035.071.648.852-1.25 2.523-2.603 2.291-3.798 4.282-1.845 3.075.513-.318.675 1.15.375 3.393-.292 2.174-.178 4.762.252 5.75.431.989.693 2.361.582 3.048-.111.688.493 1.25 1.342 1.25.849 0 1.544.513 1.544 1.14 0 .627.787 1.715 1.748 2.418.962.703 1.414 1.613 1.006 2.022-.409.409-1.808-.495-3.109-2.009-2.279-2.653-2.384-2.677-2.911-.662-.366 1.399-.075 2.091.879 2.091.985 0 1.248.705.852 2.284-.37 1.473.11 3.072 1.348 4.5 2.559 2.951 3.187 2.796 3.187-.784 0-1.65.45-3 1-3s1-.9 1-2-.422-2-.938-2c-1.869 0-.662-4.57 1.981-7.5 2.64-2.927 3.565-6.5 1.683-6.5-.517 0-.681-.675-.364-1.5.316-.825.084-1.5-.516-1.5-.777 0-.77-.387.023-1.342 1.41-1.699.47-2.658-2.603-2.658-1.946 0-2.28-.379-1.766-2 .683-2.154.121-2.341-3-1m-92.75 5.662c.688.278 1.813.278 2.5 0 .688-.277.125-.504-1.25-.504s-1.937.227-1.25.504m92.888.838c.317.825.753 1.5.969 1.5.216 0 .393-.675.393-1.5s-.436-1.5-.969-1.5c-.532 0-.709.675-.393 1.5M198 102c0 .55.477 1 1.059 1s.781-.45.441-1-.816-1-1.059-1-.441.45-.441 1m-117 2.5c0 .825.45 1.5 1 1.5s1-.675 1-1.5-.45-1.5-1-1.5-1 .675-1 1.5m76.147 3.25c-.081 2.888-.522 5.25-.98 5.25-.976 0-.791 2.678.374 5.44.528 1.252.4 2.08-.361 2.333-1.695.565-1.456 2.227.32 2.227.951 0 1.528-1.006 1.577-2.75.042-1.513.189-3.425.328-4.25.138-.825-.055-4.2-.43-7.5l-.681-6-.147 5.25m20.436-2.884c-.431.697-.513 1.537-.183 1.867.895.895 1.871-.421 1.387-1.871-.338-1.016-.574-1.016-1.204.004m-44.792 2.878c-.842.966-1.778 2.431-2.082 3.256-.436 1.187-.568 1.135-.63-.25-.043-.963-.77-1.75-1.614-1.75-2.089 0-.222 3.525 2.693 5.085 1.553.831 1.778 1.337.849 1.911-.695.429-.942 1.3-.549 1.936.919 1.486-1.221 4.096-2.846 3.473-1.367-.525-6.612 3.876-6.612 5.547 0 .577.844 1.048 1.875 1.048 1.275 0 2.063-.941 2.463-2.941.435-2.175 1.118-2.9 2.625-2.787 1.12.085 2.037.487 2.037.894 0 .408 1.347-.026 2.994-.963 3.096-1.761 4.369-5.94 1.471-4.828-1.184.455-1.47-.035-1.25-2.143.177-1.693 1.017-2.933 2.211-3.26 1.059-.29 2.132-1.146 2.384-1.902.358-1.074-.392-1.242-3.426-.768-3.549.554-3.718.482-1.957-.837 1.06-.795 1.695-1.677 1.411-1.961-.285-.284-1.205.274-2.047 1.24M187 107c0 .55.477 1 1.059 1s.781-.45.441-1-.816-1-1.059-1-.441.45-.441 1m-108.921 1.583c.048 1.165.285 1.402.604.605.289-.722.253-1.585-.079-1.917-.332-.332-.568.258-.525 1.312m112.835.405c-.872.51-1.503 1.959-1.402 3.22.102 1.261-.173 2.529-.611 2.818-.437.29-.383 1.19.122 2 .704 1.132 1.069.719 1.572-1.776.36-1.787.952-3.25 1.316-3.25.363 0 .66-.9.66-2s-.016-1.986-.035-1.97c-.02.017-.75.448-1.622.958M222 110.559c0 .857-.445 1.284-.989.948-.572-.354-.731.06-.376.984.693 1.806.674 1.816 2.265-1.241.761-1.464.809-2.25.135-2.25-.569 0-1.035.702-1.035 1.559M66 112c0 1.111.667 2 1.5 2s1.5-.889 1.5-2-.667-2-1.5-2-1.5.889-1.5 2m77-1c0 .55-.73 1-1.622 1-1.244 0-1.363.313-.509 1.342.612.738.818 1.638.456 2-.362.362-.133.658.508.658.642 0 1.2-.338 1.241-.75.041-.412.263-1.763.494-3 .231-1.237.197-2.25-.074-2.25-.272 0-.494.45-.494 1m83.704-.331c-.716 1.159.953 4.007 1.833 3.127.356-.355.217-1.413-.307-2.349-.524-.937-1.211-1.287-1.526-.778M81 112.393c0 .216.698.661 1.552.989.89.341 1.291.173.941-.393-.587-.951-2.493-1.406-2.493-.596m115 1.489c0 .55.45 1.278 1 1.618.55.34 1 .168 1-.382s-.45-1.278-1-1.618c-.55-.34-1-.168-1 .382m-70 1.559c0 .857.45 1.559 1 1.559s1-.423 1-.941-.45-1.219-1-1.559c-.55-.34-1 .084-1 .941m-60 1.528c0 .532.675.709 1.5.393.825-.317 1.5-.753 1.5-.969 0-.216-.675-.393-1.5-.393s-1.5.436-1.5.969m111.471.078c-.773 1.25 1.359 5.953 2.698 5.953 1.386 0 .929-4.674-.58-5.926-1.055-.876-1.589-.883-2.118-.027m49.113-.183c-.381.616-.28 1.857.223 2.756.621 1.109 1.14 1.276 1.609.516.381-.616.28-1.857-.223-2.756-.621-1.109-1.14-1.276-1.609-.516m-104 2.777c-.527 1.373-.38 1.435.893.378 1.735-1.44 1.916-2.019.63-2.019-.491 0-1.176.739-1.523 1.641m50.999 2.002c-.346.904-.333 1.916.03 2.25.364.334.863.042 1.109-.649.247-.691.973-.942 1.613-.558.641.384.547-.063-.207-.994-1.689-2.082-1.764-2.083-2.545-.049M183 121c0 .55.45 1 1 1s1-.45 1-1-.45-1-1-1-1 .45-1 1m6.345.543c-.326.849-.311 1.824.031 2.167.343.343.624.043.624-.666 0-1.001.318-1.025 1.421-.109 1.167.968 1.325.81.884-.878-.636-2.43-2.125-2.689-2.96-.514m37.293 1.957c.37.963-.02 1.5-1.09 1.5-.916 0-1.4.43-1.075.956.943 1.526 3.527.015 3.527-2.063 0-1.041-.436-1.893-.969-1.893-.532 0-.709.675-.393 1.5M217 125.73c0 2.225 1.249 4.27 2.607 4.27 1.886 0 1.755-.695-.607-3.23-1.1-1.181-2-1.649-2-1.04m-113.75 1.009c3.162.198 8.337.198 11.5 0 3.162-.198.575-.361-5.75-.361s-8.913.163-5.75.361m55.014-.021c1.52.229 3.77.223 5-.014 1.23-.237-.014-.425-2.764-.418-2.75.008-3.756.202-2.236.432M66 132.941c0 2.782.45 5.059 1 5.059s1-1.998 1-4.441c0-2.443-.45-4.719-1-5.059-.616-.381-1 1.323-1 4.441m160.506-1.968c-.383 1.743-.428 3.438-.101 3.765.327.328.595-.342.595-1.488s.563-2.29 1.25-2.542c.944-.346.969-.758.101-1.682-.885-.943-1.308-.497-1.845 1.947m5.763-2.28c.973.254 2.323.237 3-.037.677-.274-.119-.481-1.769-.461-1.65.02-2.204.244-1.231.498M148 130.5c-.86 1.036-.898 1.5-.122 1.5.617 0 1.122-.45 1.122-1s.502-1 1.117-1 .887.877.606 1.952c-.281 1.074.004 2.163.633 2.421s.357.505-.606.548c-.963.043-1.75.479-1.75.968s.787.826 1.75.75c4.431-.352 5.152-7.639.756-7.639-1.244 0-2.821.675-3.506 1.5m13 .441c0 2.883 1.543 3.306 1.777.487.11-1.335-.244-2.428-.788-2.428s-.989.873-.989 1.941m26.293 2.028c-.114 1.631.293 3.275.904 3.653.674.416.831.232.398-.467-.422-.685-.078-1.155.846-1.155.857 0 1.559.525 1.559 1.167 0 .641.239.927.531.635.561-.561-2.675-6.786-3.531-6.794-.275-.002-.593 1.33-.707 2.961m45.457-2.28c-1.718.449-2.545 4.311-.923 4.311.455 0 .628 1.355.385 3.011-.397 2.701-.199 2.972 1.923 2.629 1.467-.238 2.31-1.015 2.22-2.047-.11-1.263.171-1.401 1.167-.575.991.822 1.405.648 1.696-.715.589-2.754-.293-5.303-1.835-5.303-.76 0-1.383-.45-1.383-1 0-1.04-.337-1.072-3.25-.311M156.5 132c.34.55.816 1 1.059 1s.441-.45.441-1-.477-1-1.059-1-.781.45-.441 1m26.138.5c.317.825.753 1.5.969 1.5.216 0 .393-.675.393-1.5s-.436-1.5-.969-1.5c-.532 0-.709.675-.393 1.5m26.911 1.993c.162 1.476.562 2.951.889 3.279.328.327 1.133.057 1.79-.6.926-.926.726-1.663-.89-3.278l-2.084-2.084.295 2.683M220 133c0 .55.477 1 1.059 1s.781-.45.441-1-.816-1-1.059-1-.441.45-.441 1m-119.333.667c-1.095 1.094-.76 2 .738 2 .772 0 1.174-.6.893-1.334-.586-1.526-.718-1.58-1.631-.666m133.843.349c.346.559 1.047.758 1.559.441 1.387-.857 1.129-1.457-.628-1.457-.857 0-1.276.457-.931 1.016m-61.396.913c-.859.532-.962 1.047-.29 1.462.571.353 1.339.154 1.707-.441.918-1.486.188-2.012-1.417-1.021M169.5 136c.34.55.141 1-.441 1s-1.059.675-1.059 1.5c0 1.63 2.533 2.064 3.444.59.741-1.198-.397-4.09-1.61-4.09-.524 0-.674.45-.334 1m46.5.789c0 1.181.283 1.221 1.5.211.825-.685 1.5-1.34 1.5-1.456 0-.116-.675-.211-1.5-.211s-1.5.655-1.5 1.456m4.75-.127c.688.278 1.813.278 2.5 0 .688-.277.125-.504-1.25-.504s-1.937.227-1.25.504M156 138c1.939 1.253 3 1.253 3 0 0-.55-1.012-.993-2.25-.985-1.819.013-1.963.201-.75.985m-74 1c0 .55.477 1 1.059 1s.781-.45.441-1-.816-1-1.059-1-.441.45-.441 1m94 .5c0 .825.436 1.5.969 1.5.532 0 .709-.675.393-1.5-.317-.825-.753-1.5-.969-1.5-.216 0-.393.675-.393 1.5m59.25 1.957c-1.787.526-3.25 1.362-3.25 1.857 0 .495.675.641 1.5.324.825-.316 1.5-.139 1.5.393 0 .533-.675.969-1.5.969s-1.387.552-1.25 1.226c.137.675-.762 1.381-2 1.57-1.631.249-2.254-.158-2.265-1.476-.01-1.201-.272-1.417-.769-.635-.414.652-3.118 1.498-6.007 1.882-2.89.383-5.526 1.138-5.86 1.677-.82 1.327 1.461 2.618 3.625 2.052 1.069-.279 2.536.537 3.757 2.089 2.112 2.685 3.521 2.557 2.566-.233-.41-1.197-.125-1.101 1.037.348.881 1.1 1.617 1.465 1.634.812.018-.653.819-1.142 1.782-1.085.963.056 3.213-.232 5-.642 2.361-.54 3.25-.394 3.25.536 0 .995.267 1.012 1.2.079 2.034-2.034 4.715-1.388 5.389 1.3.345 1.375 1.142 2.529 1.769 2.563.628.035.13.471-1.108.968-1.238.498-2.25 1.649-2.25 2.559 0 1.285-.305 1.402-1.366.521-.807-.67-2.953-.893-5.25-.545-2.136.324-4.362.629-4.947.678-1.305.11-1.669 9.756-.368 9.756.512 0 .931-1.155.931-2.566 0-3.563 1.729-6.434 3.875-6.434 1.861 0 4.125 3.758 4.125 6.847 0 .964.563 2.359 1.25 3.1.837.901.86 1.128.072.685-.885-.497-1.203 4.046-1.276 18.23-.094 18.172-.021 18.911 1.928 19.421 1.382.361 2.026.044 2.026-.999 0-1.177.314-1.268 1.362-.399 1.133.941 1.304-.192 1.022-6.763-.296-6.87-.124-7.875 1.323-7.757 1.13.092 1.895-.959 2.385-3.278.805-3.806-.473-6.692-3.292-7.429-2.683-.702-2.643-14.815.05-17.508 1.673-1.673 1.949-1.697 2.887-.25.823 1.269 1.033.875 1.015-1.9-.013-1.925.256-5.66.598-8.3.453-3.502.309-4.607-.535-4.086-.765.473-.944.164-.529-.918.924-2.407-1.194-3.193-2.821-1.046-1.298 1.714-1.404 1.721-1.433.1-.023-1.251-.847-1.75-2.89-1.75-2.477 0-2.977-.5-3.75-3.75-.873-3.67-.961-3.73-4.142-2.793m-32.134.734c-.064.93.341 1.974.9 2.319 1.406.869.227 2.487-1.825 2.505-.93.009-2.366.444-3.191.967-1.284.815-1.178 1.275.739 3.196 1.61 1.614 2.544 1.939 3.325 1.158.761-.761 2.277-.783 5.073-.073 2.896.735 4.307.693 5.153-.153 1.751-1.751-.336-4.365-4.307-5.394-2.278-.59-2.939-1.125-2.061-1.668.91-.562.964-1 .185-1.482-.609-.376-1.523-.427-2.031-.113-.509.314-1.131-.222-1.384-1.191-.411-1.575-.472-1.583-.576-.071m18.528.294c-.358.933.003 1.826.873 2.16 2.072.795 4.732-.394 4.238-1.896-.624-1.894-4.41-2.09-5.111-.264m20.023-.818c-1.327 1.327-.625 3.333 1.166 3.333 2.541 0 3.357-1.066 2.036-2.658-1.231-1.483-2.192-1.685-3.202-.675m-24.058 1.157c-.353.571-.154 1.339.441 1.707 1.486.918 2.012.188 1.021-1.417-.532-.859-1.047-.962-1.462-.29m-136.051 5.083c-.309.498.34.671 1.441.383 2.335-.611 2.63-1.29.56-1.29-.793 0-1.693.408-2.001.907m112.18-.215c-.969.253-1.505.875-1.191 1.384.855 1.384 2.166 1.116 2.815-.576.316-.825.477-1.448.357-1.384-.121.064-1.012.323-1.981.576m-65.084 5.525c-.303 1.158-.065 3.015.529 4.125 1.05 1.961 1.119 1.965 2.449.147 1.85-2.53 1.722-3.787-.53-5.193-1.613-1.008-1.98-.87-2.448.921M67.638 154.5c.317.825.964 1.5 1.438 1.5.473 0 .602-.675.286-1.5-.317-.825-.964-1.5-1.438-1.5-.473 0-.602.675-.286 1.5M168 154.031c0 .533.498.969 1.107.969s.839.698.511 1.552c-.341.89-.173 1.291.393.941 1.49-.921 1.187-3.203-.511-3.855-.825-.316-1.5-.139-1.5.393m5.079.637c-.043.643-.338 1.993-.655 3-.547 1.741-.518 1.744.571.044.631-.983.925-2.333.655-3-.355-.875-.514-.887-.571-.044m34.654.456c.679.684 1.486.991 1.793.683.308-.308-.247-.867-1.233-1.243-1.425-.542-1.54-.428-.56.56m-121.522 4.481c-1.06 1.146-1.025 1.395.191 1.395 1.698 0 3.008-1.633 1.864-2.326-.421-.255-1.346.164-2.055.931M195.5 160c-.34.55-.34 1.45 0 2s.141 1-.441 1-1.059.45-1.059 1 .81 1 1.8 1 2.431.563 3.202 1.25c1.192 1.063 1.204.989.077-.5-.728-.963-.917-1.75-.42-1.75.498 0 .998-1.125 1.112-2.5.155-1.874-.276-2.5-1.723-2.5-1.062 0-2.208.45-2.548 1m8.5 1.035c0 .596-.45.805-1 .465-.858-.53-1.354 11.408-1.412 34-.004 1.65-.588 3.595-1.298 4.321-1.507 1.544-1.718 4.179-.335 4.179.525 0 1.25 1.575 1.611 3.5s1.064 3.5 1.562 3.5c.519 0 .807-9.305.674-21.849-.204-19.309-.029-22.156 1.507-24.5.955-1.458 2.376-2.651 3.157-2.651 2.039 0 4.534 3.975 4.534 7.223 0 1.527.472 2.777 1.05 2.777.646 0 .935-2.211.75-5.75l-.3-5.75-5.25-.274c-3.271-.171-5.25.134-5.25.809M82 164c0 .55.477 1 1.059 1s.781-.45.441-1-.816-1-1.059-1-.441.45-.441 1m-14.5 2c.34.55 1.068 1 1.618 1s.722-.45.382-1c-.34-.55-1.068-1-1.618-1s-.722.45-.382 1m7.5 0c0 .55.477 1 1.059 1s.781-.45.441-1-.816-1-1.059-1-.441.45-.441 1m94.131 3.5c-.126 2.515 1.505 5.197 2.536 4.167.426-.427.278-1.089-.33-1.471-.608-.383-1.33-1.596-1.605-2.696l-.5-2-.101 2m3.751 4.847c-.066 2.284-.054 4.682.026 5.328.346 2.802-1.734 1.988-2.406-.941l-.741-3.234-1.259 4c-1.397 4.436-.47 6.548 1.98 4.515.861-.715 1.721-1.123 1.91-.908.189.216.554 3.543.811 7.393.257 3.85.283 6.207.057 5.238-.578-2.477-2.26-1.121-2.26 1.821 0 1.439.581 2.441 1.417 2.441.779 0 1.643.563 1.921 1.25.277.688.556-1 .619-3.75.274-11.949.807-16.321 2.374-19.462.918-1.84 1.669-3.876 1.669-4.525 0-.649.563-1.184 1.25-1.189.688-.005 2.266-.337 3.507-.737 1.735-.558 2.928-.056 5.156 2.172 3.676 3.676 5.074 8.736 5.081 18.384.005 6.162.324 7.765 1.648 8.273 1.447.555 1.557.003.924-4.643-.396-2.9-.656-9.849-.578-15.442l.141-10.169-11.565.017-11.564.016-.118 4.152m57.564-1.26c-.369.598-.171 1.588.441 2.2.817.817 1.113.528 1.113-1.087 0-2.415-.519-2.787-1.554-1.113m19.749 1.413c.02 1.65.244 2.204.498 1.231.254-.973.237-2.323-.037-3-.274-.677-.481.119-.461 1.769M213 192.083c0 14.825.279 18.99 1.25 18.663.701-.236 1.109-1.589.928-3.083-.181-1.503.171-2.663.809-2.663.622 0 .882-.403.578-.895-.639-1.033 1.405-1.952 5.945-2.674 4.087-.649 6.465 1.671 4.362 4.256-1.195 1.47-1.156 1.607.305 1.06 1.747-.655 4.296 1.447 3.148 2.595-.362.362-.133.658.508.658.842 0 1.167-4.595 1.167-16.5 0-9.873-.386-16.5-.96-16.5-.539 0-.916 3.398-.861 7.75.125 9.889-.199 15.092-.841 13.5-.278-.687-1.169-1.25-1.98-1.25-.812 0-1.217-.419-.901-.931 1.11-1.796-1.428-2.135-4.417-.59-1.661.859-3.285 1.44-3.611 1.291-.325-.148-1.214.855-1.975 2.23-1.231 2.225-1.387.933-1.419-11.75-.021-8.81-.417-14.25-1.035-14.25-.632 0-1 7.028-1 19.083M133 175c0 .55.477 1 1.059 1s.781-.45.441-1-.816-1-1.059-1-.441.45-.441 1m-8 4.885c2.97 2.459 4.152 2.676 3.362.615-.317-.825-.941-1.5-1.387-1.5-.446 0-1.636-.267-2.643-.593-1.308-.424-1.117-.001.668 1.478m9-.885c.825.533 1.95.969 2.5.969s.325-.436-.5-.969c-.825-.533-1.95-.969-2.5-.969s-.325.436.5.969m6.234.381c.954.724 1.536 1.515 1.293 1.758-.242.243.467.51 1.578.594 1.841.139 1.801-.019-.451-1.79-1.358-1.069-2.848-1.929-3.312-1.911-.463.017-.061.624.892 1.349m77.349.485c-.431.697-.513 1.537-.183 1.867.895.895 1.871-.421 1.387-1.871-.338-1.016-.574-1.016-1.204.004m32.496.717c.048 1.165.285 1.402.604.605.289-.722.253-1.585-.079-1.917-.332-.332-.568.258-.525 1.312M218 184.375c0 .756-.281 2.781-.625 4.5-.404 2.019-.227 3.125.5 3.125.619 0 1.125-.47 1.125-1.045s1.17-2.216 2.601-3.647c2.096-2.096 2.772-2.33 3.484-1.204.708 1.118.887 1.047.9-.354.015-1.741-2.02-2.382-3.347-1.054-1.34 1.339-3.506 1.124-2.962-.295.296-.77.04-1.401-.569-1.401s-1.107.619-1.107 1.375m-48 3.684c0 .582.45.781 1 .441s1-.816 1-1.059-.45-.441-1-.441-1 .477-1 1.059m7 2.441c0 .825.675 1.5 1.5 1.5s1.5-.675 1.5-1.5-.675-1.5-1.5-1.5-1.5.675-1.5 1.5m-41.527 1.456c.325.526 1.252.703 2.059.393 2.067-.793 1.824-1.349-.591-1.349-1.132 0-1.793.43-1.468.956m-68.806 2.711c-1.218 1.218-.689 3.333.833 3.333.833 0 1.5-.889 1.5-2 0-1.992-1.066-2.601-2.333-1.333m74.146.016c.721.289 1.584.253 1.916-.079.332-.332-.258-.568-1.312-.525-1.165.048-1.402.285-.604.604M86 198c0 .55.477 1 1.059 1s.781-.45.441-1-.816-1-1.059-1-.441.45-.441 1m48 4.059c0 .582.45.781 1 .441s1-.816 1-1.059-.45-.441-1-.441-1 .477-1 1.059M80.638 203.5c.317.825 1.203 1.5 1.969 1.5 1.895 0 1.765-1.643-.189-2.393-2.258-.867-2.423-.784-1.78.893m3.12 12.075c-.316.317-.166 2.001.333 3.744C85.205 223.203 85.21 223 84 223c-.55 0-1-.675-1-1.5s-.675-1.5-1.5-1.5c-2.061 0-1.879 1.231.483 3.253 1.996 1.71 4.826 1.402 6.252-.68.897-1.31 1.017-5.159.134-4.275-.348.347-1.534.149-2.636-.441-1.613-.863-1.734-1.243-.618-1.949.762-.483.898-.884.302-.893-.596-.008-1.343.244-1.659.56m44.693.505c-.378.611.128 1.856 1.126 2.766 1.684 1.536 1.725 1.536.576.001-.983-1.313-.982-1.737.006-2.067.898-.299.929-.607.111-1.113a1.322 1.322 0 00-1.819.413m16.628.503c.048 1.165.285 1.402.604.605.289-.722.253-1.585-.079-1.917-.332-.332-.568.258-.525 1.312M218.5 217c-.34.55-.141 1 .441 1s1.059-.45 1.059-1-.198-1-.441-1-.719.45-1.059 1m15.5 2c0 .55.45 1 1 1s1-.45 1-1-.45-1-1-1-1 .45-1 1m-157.992 1.974c-1.123.71-1.208 1.226-.342 2.092.865.865 1.427.628 2.277-.959 1.203-2.249.491-2.667-1.935-1.133m20.598 1.776c-.421 1.787-1.292 3.295-1.935 3.35-.644.055-.046.434 1.329.842 1.375.409 2.838.562 3.25.341 1.079-.577.926-4.283-.177-4.283-.509 0-1.101-.787-1.314-1.75-.253-1.142-.653-.622-1.153 1.5M157.5 221c-.34.55.084 1 .941 1s1.559-.45 1.559-1-.423-1-.941-1-1.219.45-1.559 1m20.785.619c.764.763 8.714.715 9.487-.058.309-.308-1.839-.561-4.772-.561-2.933 0-5.055.278-4.715.619m41.61 3.131c-1.176 3.497-1.301 3.586-1.856 1.324-.891-3.636-3.039-3.822-3.039-.263 0 2.944.06 2.976 5.25 2.833l5.25-.144.31-3.75c.283-3.41.085-3.75-2.172-3.75-1.978 0-2.739.762-3.743 3.75M70 223.059c0 .582.45.781 1 .441s1-.816 1-1.059-.45-.441-1-.441-1 .477-1 1.059m35 1.441c0 .825.436 1.5.969 1.5.532 0 .709-.675.393-1.5-.317-.825-.753-1.5-.969-1.5-.216 0-.393.675-.393 1.5m7 1.5c0 .55.477 1 1.059 1s.781-.45.441-1-.816-1-1.059-1-.441.45-.441 1m83 1.475c0 2.209.262 2.376 2.433 1.55 1.707-.648 2.579-.566 2.921.275.269.66.524-.038.567-1.55.069-2.406-.296-2.75-2.921-2.75-2.525 0-3 .392-3 2.475m-107.362.025c.317.825.978 1.5 1.469 1.5.491 0 .893-.675.893-1.5s-.661-1.5-1.469-1.5c-.894 0-1.243.586-.893 1.5m28.523 5.047c-1.664 3.652-1.458 4.453 1.148 4.453 3.629 0 5.667-2.09 4.631-4.75-1.175-3.019-4.343-2.856-5.779.297M101 234.893c0 1.692.644 3.14 1.552 3.489.89.341 1.291.173.941-.393-.336-.544-.108-.989.507-.989s.835-.457.49-1.016c-.346-.559-1.047-.758-1.559-.441-.512.316-.931.084-.931-.516s1.013-1.498 2.25-1.996c2.163-.869 2.143-.907-.5-.968-2.381-.054-2.75.325-2.75 2.83M130.5 233c-.34.55-.141 1 .441 1s1.059-.45 1.059-1-.198-1-.441-1-.719.45-1.059 1m-24 4c-.34.55.057 1 .882 1s1.778-.45 2.118-1c.34-.55-.057-1-.882-1s-1.778.45-2.118 1m-29.687 6.683c.721.289 1.584.253 1.916-.079.332-.332-.258-.568-1.312-.525-1.165.048-1.402.285-.604.604" fill="#1976D2" fill-rule="evenodd"/><path fill-opacity=".386" d="M37.57 12.887c-.653 1.057 2.213 3.663 3.078 2.799.833-.834-.372-3.686-1.558-3.686-.534 0-1.219.399-1.52.887m-5.111 5.18c-1.089 1.762.059 2.009 2.114.454 1.692-1.28 1.721-1.461.236-1.489-.93-.018-1.988.448-2.35 1.035m1.307 3.858L30.5 24.85l2.922 1.116c3.752 1.432 5.571.722 4.884-1.905-.615-2.351-.397-2.426 3.129-1.086 3.511 1.335 3.527-1.216.018-2.814-3.57-1.627-4.015-1.525-7.687 1.764M0 21.573C0 22.358.45 23 1 23s1-.419 1-.93c0-.574 1.243-.574 3.243 0 4.093 1.173 4.717 1.137 2.512-.147C4.764 20.181 0 19.966 0 21.573m13.025 3.448c1.787 1.551 2.514 1.726 3.116.751.492-.796.144-1.526-.928-1.951-3.495-1.387-4.522-.824-2.188 1.2m26.99.17c-.008.93.435 1.969.985 2.309 1.266.782 1.266-.542 0-2.5-.835-1.293-.971-1.266-.985.191M.5 32.25c.695 15.38.697 58.408.002 61.5C.018 95.908.147 97 .887 97 1.499 97 2 97.9 2 99c0 1.111.667 2 1.5 2 1.264 0 1.5 2.278 1.5 14.5 0 10.055.344 14.5 1.122 14.5.761 0 .708.499-.161 1.548-1.028 1.238-1.131 9.684-.516 42.25.422 22.386 1.058 44.939 1.412 50.118l.643 9.416 6.5 1.395c3.575.767 11.9 2.484 18.5 3.816 6.6 1.332 14.925 3.086 18.5 3.898 3.575.812 8.862 1.771 11.75 2.133l5.25.656v-5.031c0-3.09.482-5.227 1.25-5.537.783-.316.631-.534-.407-.583-1.283-.061-1.735-1.294-2-5.448-.189-2.953-.1-6.665.196-8.25.296-1.584.163-5.021-.296-7.637-.523-2.973-.455-5.41.18-6.5.8-1.373 1.023-.804 1.047 2.673.047 6.883 1.519 3.705 1.621-3.5.076-5.435-.173-6.417-1.628-6.417-2.5 0-4.742-2.9-3.05-3.946 1.421-.878 1.46-10.749.181-45.054-.423-11.347-.346-20.278.184-21.36.501-1.024.603-5.336.227-9.584-.376-4.248-.711-16.573-.743-27.39-.042-13.6-.4-19.671-1.161-19.681-.699-.01-.654-.299.123-.793 1.282-.815 2.071-10.731.944-11.858-.358-.357-.092-1.35.591-2.205.802-1.006-.172-.749-2.759.729l-4 2.284 3-2.869c2.367-2.264 3.527-2.715 5.5-2.14 1.375.401 5.987 1.023 10.25 1.383 4.841.409 7.756 1.092 7.765 1.819.01.738.285.798.75.165.85-1.157 6.516-1.764 5.811-.622-.259.418.856.565 2.477.328 1.621-.238 2.948-.044 2.948.431.001.474 2.364.906 5.25.959 6.501.118 22.38 1.318 25.749 1.945 1.375.256 6.775.924 12 1.486 5.225.561 11.413 1.232 13.75 1.492 2.338.259 6.163.673 8.5.921 2.338.247 9.875 1.157 16.75 2.021 6.875.863 14.075 1.729 16 1.924 5.2.525 14.481 1.572 23.5 2.651 13.306 1.592 16.643 1.925 25.5 2.546 8.489.596 8.502.593 9.697-2.079 1.006-2.249.966-2.588-.25-2.121-.796.305-1.447.128-1.447-.394s-1.35-.792-3-.6c-1.65.192-3-.071-3-.585 0-.515-2.005-.756-4.455-.537-2.451.219-4.224.024-3.941-.434.283-.458-.188-.832-1.045-.832s-1.566.563-1.574 1.25c-.012.979-.191.974-.825-.026-.557-.877-2.743-1.167-6.985-.929-3.396.192-6.175.026-6.175-.367s-.698-.982-1.552-1.31c-.89-.341-1.291-.173-.941.393.336.544.161.989-.389.989s-1.308-.498-1.684-1.107c-.477-.771-.944-.696-1.544.25-.55.869-.865.937-.875.19-.009-.718-1.362-1.06-3.515-.889-1.925.152-3.5-.077-3.5-.51 0-1.219-3.253-1.659-5.75-.778-1.403.495-2.25.402-2.25-.248 0-.608-.886-.762-2.125-.368-1.43.454-1.902.312-1.441-.433.388-.629.01-1.107-.875-1.107-.857 0-1.559.45-1.559 1s-.477 1-1.059 1-.758-.487-.391-1.081c.406-.657-.061-.962-1.191-.775-1.022.168-2.39-.028-3.04-.435-.649-.408-1.46-.289-1.802.264-.385.623-1.631.345-3.28-.734-1.463-.957-2.313-1.176-1.889-.489.423.688.331 1.25-.206 1.25-.536 0-1.238-.562-1.559-1.25-.459-.984-.711-.973-1.184.053-.482 1.045-.828 1.02-1.75-.129-.632-.787-2.81-1.678-4.84-1.98-3.159-.47-3.599-.307-3.056 1.128.534 1.411.332 1.378-1.264-.206-1.195-1.185-2.04-1.463-2.278-.75-.208.624-.817 1.134-1.353 1.134-.537 0-.657-.516-.268-1.146.501-.81-.092-.945-2.025-.46-1.789.449-2.511.327-2.09-.354.366-.591-.245-1.04-1.416-1.04-1.132 0-2.066.563-2.074 1.25-.012.985-.186.981-.821-.018-1.083-1.707-6.97-3.355-7.71-2.158-.314.509-1.022.926-1.572.926s-.722-.45-.382-1c.34-.55-.309-1-1.441-1-1.132 0-2.059.45-2.059 1s-.498 1-1.107 1-.871-.615-.583-1.366c.391-1.019-1.045-1.566-5.643-2.149-9.96-1.263-13.121-1.286-13.917-.101-.53.789-.97.801-1.5.043-.918-1.313-3.851-2.478-7.448-2.959-2.118-.282-2.568-.022-2.095 1.211.5 1.303.122 1.255-2.226-.283-2.051-1.345-2.941-1.516-3.238-.625-.578 1.733-2.243 1.532-2.243-.271 0-1.809-3.623-2.017-4.341-.25-.352.868-.759.923-1.333.177-1.338-1.738-4.157-2.412-4.685-1.121-.342.836-.737.872-1.315.121C88.147 47.895 85 46.88 85 48.031c0 .533-.675.969-1.5.969s-1.5-.45-1.5-1 .525-1 1.167-1c.641 0 .949-.217.683-.483-.265-.265-1.965-.058-3.776.462-2.523.723-3.636.602-4.755-.517-1.663-1.663-2.953-1.863-3.745-.581-.878 1.42-7.417-2.2-7.76-4.297-.187-1.14-1.731-2.425-3.814-3.174-2.949-1.06-3.383-1.944-.75-1.528.413.065.75-.332.75-.882 0-1.426-1.213-1.239-3.824.589-2.542 1.781-5.67 1.139-4.851-.995.387-1.006-.753-1.599-4.146-2.155-2.573-.421-5.129-.861-5.679-.976-.55-.116-4.864-.724-9.587-1.352-4.723-.628-13.498-2.256-19.5-3.618C6.411 26.132 1.201 25.014.837 25.009.472 25.004.32 28.262.5 32.25M25 26.954c.825.559 2.363 1.022 3.417 1.031 2.558.02 1.76-.552-1.917-1.375-2.191-.49-2.595-.397-1.5.344m8 1.429c0 .211 1.125.599 2.5.862s2.5.09 2.5-.384c0-.473-1.125-.861-2.5-.861s-2.5.173-2.5.383m12.75 2.279c.688.278 1.813.278 2.5 0 .688-.277.125-.504-1.25-.504s-1.937.227-1.25.504M59 32.383c0 .888 4.046 1.352 4.558.523.308-.498-.592-.906-1.999-.906S59 32.173 59 32.383m-6.531 2.667c-.95 1.538.351 2.53 1.635 1.246.718-.718.735-1.277.052-1.699-.56-.346-1.319-.142-1.687.453M44.5 37c.34.55.816 1 1.059 1s.441-.45.441-1-.477-1-1.059-1-.781.45-.441 1m94.3 7.2c.933.933 1.467.933 2.4 0 .933-.933.667-1.2-1.2-1.2s-2.133.267-1.2 1.2m-3.8 2.859c0 .582.45.781 1 .441s1-.816 1-1.059-.45-.441-1-.441-1 .477-1 1.059m1.75 1.513C133.23 50.481 133.284 51 137 51c1.931 0 3-.508 3-1.427 0-.784.787-1.632 1.75-1.884 1.461-.381 1.42-.47-.25-.533-1.1-.042-3.238.595-4.75 1.416m32.063 4.111c.721.289 1.584.253 1.916-.079.332-.332-.258-.568-1.312-.525-1.165.048-1.402.285-.604.604M123.5 54c.34.55.816 1 1.059 1s.441-.45.441-1-.477-1-1.059-1-.781.45-.441 1m-67.628 7.75c-1.243 1.586-1.208 1.621.378.378.962-.755 1.75-1.543 1.75-1.75 0-.823-.821-.294-2.128 1.372M84 64.883c0 2.288-.465 3.126-1.75 3.152-1.402.029-1.297.288.531 1.302 1.255.697 2.155 1.476 2 1.732-.154.255.146.119.669-.302.522-.422 1.59-.767 2.372-.767 1.151 0 1.185.286.178 1.5-.685.825-1.897 1.5-2.694 1.5-.797 0-2.128.679-2.958 1.509-1.345 1.345-1.175 1.576 1.572 2.125C87.35 77.32 88.117 79 85 79c-2.6 0-2.586 1.613.019 2.295 1.805.472 1.889.813.79 3.226-1.056 2.317-.98 2.881.54 3.993 1.121.819 1.382 1.534.711 1.949-.583.36-1.06.103-1.06-.571 0-.674-.242-.983-.537-.688-1.026 1.026 1.881 5.878 3.215 5.366.727-.279 1.322-.029 1.322.555 0 .584-.938 1.308-2.085 1.607-1.584.415-1.764.748-.75 1.391C89.819 99.806 92 99.1 92 96.559c0-1.343-.457-2.724-1.016-3.069-.559-.346-.715-1.117-.346-1.714.401-.647.206-.797-.483-.371-.685.422-1.155.078-1.155-.846 0-.857.498-1.559 1.107-1.559.623 0 .827-.73.466-1.67-.352-.919-.089-2.011.586-2.428.925-.572.957-1.353.128-3.172-1.238-2.717-.701-3.986 2.213-5.229 1.929-.823 1.921-.867-.25-1.246-1.237-.217-2.25-.617-2.25-.89C91 72.818 93.283 70 94.535 70 95.543 70 96 68.907 96 66.5c0-3.375-.134-3.5-3.75-3.514-2.062-.007-4.763-.285-6-.616-1.981-.531-2.25-.231-2.25 2.513m-36.5 2.705l-3 2.577 3.25-2.15c1.788-1.183 3.25-2.346 3.25-2.583 0-.749-.423-.488-3.5 2.156M92.5 80c.34.55.816 1 1.059 1s.441-.45.441-1-.477-1-1.059-1-.781.45-.441 1m157.5.402c0 1.698 1.633 3.008 2.326 1.864.255-.421-.164-1.346-.931-2.055-1.146-1.06-1.395-1.025-1.395.191m-149 6.959c0 2.551.338 4.586.75 4.521.412-.066 2.888-.066 5.5 0 6.656.166 5.965 2.118-.75 2.118H101v30h-2.5c-1.375 0-2.5.364-2.5.809 0 .445-.708 1.682-1.574 2.75-.866 1.067-1.314 1.419-.997.781.318-.638.307-1.864-.023-2.725-.645-1.68-6.398-4.956-7.235-4.119-.277.277.121.504.885.504.829 0 .492.628-.833 1.557-2.309 1.617-3.073 5.443-1.088 5.443.624 0-.03.917-1.455 2.037-2.703 2.126-2.687 3.934.066 7.146.946 1.103 1.22 2.696.795 4.628-.56 2.551-.314 3.029 1.831 3.568 2.284.573 10.59-.007 11.377-.795.188-.188.523-3.823.746-8.079.222-4.256.678-8.012 1.013-8.347.335-.335 2.72-.532 5.301-.438 9.533.345 11.431.244 13.043-.697 1.13-.66-1.729-.972-9.102-.993-6.92-.019-10.75-.41-10.75-1.095 0-.669 2.7-1.014 7.25-.927 12.175.232 15.891.029 15.353-.841-.283-.459-1.885-.632-3.559-.387-2.905.427-3.044.285-3.044-3.107 0-1.955.45-3.833 1-4.173.598-.369.928-5.725.82-13.309-.164-11.551-.238-12.017-.82-5.191l-.64 7.5-.18-8.309c-.115-5.328.179-8.087.82-7.691.583.361 1-.656 1-2.441 0-2.503-.409-3.061-2.25-3.068-1.237-.004-4.612-.292-7.5-.639l-5.25-.631v4.64m49.187 1.889c.282 2.933.682 3.299 4.096 3.75 4.685.619 4.953 2.556.299 2.155-1.859-.16-3.677.19-4.04.777-.386.625.194 1.068 1.399 1.068 1.977 0 2.059.538 2.059 13.5V124h-4c-2.816 0-4 .427-4 1.441 0 2.132.749 2.35 10.279 2.99 5.583.375 8.721.223 8.721-.423 0-.598-3.453-1.008-8.5-1.008-5.7 0-8.5-.376-8.5-1.141 0-.807 2.492-.985 8.509-.61 4.68.292 8.738.161 9.017-.291.279-.452-.737-.965-2.259-1.14-3.128-.36-3.086.294-1.691-26.068l.621-11.75h-12.324l.314 3.25M93 89c0 .55.477 1 1.059 1s.781-.45.441-1-.816-1-1.059-1-.441.45-.441 1m110.302 1.654c-.939 2.449.276 4.841 2.71 5.338 3.326.679 3.704 3.008.488 3.008-3.379 0-3.186 1.763.25 2.284l2.75.416-2.75.15c-1.512.083-2.75.57-2.75 1.084 0 .513 1.238 1.121 2.75 1.35l2.75.416-2.75.15c-1.512.083-2.75.627-2.75 1.209 0 .582.338.864.75.625.412-.238 1.65-.072 2.75.371 1.746.702 1.651.813-.75.875-1.512.038-2.75.458-2.75.932 0 .475 1.125.739 2.5.589 1.375-.151 2.5.135 2.5.637s-1.125.912-2.5.912-2.5.477-2.5 1.059.446.783.992.446 1.783-.153 2.75.41c1.508.879 1.367 1.029-.992 1.055-2.073.023-2.75.522-2.75 2.03 0 1.467.667 2 2.5 2 1.375 0 2.5.502 2.5 1.117 0 .651-1.041.917-2.5.638-1.375-.263-2.5-.09-2.5.384 0 .473 1.125.861 2.5.861s2.5.45 2.5 1-1.125 1-2.5 1-2.5.45-2.5 1-.706 1-1.57 1c-1.055 0-1.464.737-1.25 2.25.292 2.054.929 2.276 7.32 2.551 8.722.375 7.801-1.52-1-2.057l-6-.366 7.25-.189c4.041-.105 7.25-.632 7.25-1.189 0-.55-1.189-1-2.642-1h-2.643l.517-17.407.517-17.407-3.988-.38c-2.538-.242-4.158.066-4.459.848m-145.552.923c-.413.416-.736 1.919-.72 3.34.027 2.266.158 2.364 1.068.802 1.138-1.957.853-5.354-.348-4.142m174.089.917c-.272.272-.299 1.822-.061 3.445.298 2.03 1.101 3.08 2.577 3.369 2.095.41 2.093.423-.105.556-2.45.148-3.177 2.136-.781 2.136.894 0 1.243.586.893 1.5-.337.877-.012 1.506.781 1.515 1.049.012 1.016.239-.143 1-1.333.876-1.333 1.094 0 1.97.9.59 1.025.991.312 1-1.454.018-1.304 4.009.151 4.03.57.009.362.493-.463 1.076-1.129.799-1.191 1.187-.25 1.568 2.019.82 1.432 2.261-.75 1.841-1.544-.297-2 .153-2 1.974 0 1.298.563 2.586 1.25 2.864 1 .403 1 .52 0 .583-.687.043-1.25.592-1.25 1.219 0 .627-.744 1.683-1.653 2.348-2.677 1.958-.592 3.512 4.712 3.512 4.701 0 4.941.131 4.941 2.7 0 1.739.344 2.356.967 1.733.532-.532.705-1.972.384-3.2-.504-1.926-1.256-2.233-5.468-2.233-2.807 0-4.883-.456-4.883-1.072 0-.713 1.801-.847 5.379-.4 3.523.44 5.614.293 6.059-.428.423-.684-.232-1.1-1.731-1.1h-2.412l.491-17 .491-17h-3.472c-1.909 0-3.694.222-3.966.494M245 96.36c0 5.407 1.419 10.64 2.886 10.642 1.344.001 1.557-1.003 1.275-6-.289-5.124-.618-6.002-2.25-6.002-1.051 0-1.911.612-1.911 1.36m-90 14.14c0 12.833.099 13.5 2 13.5 1.85 0 2-.667 2-8.86 0-11.826-.918-18.14-2.636-18.14-1.085 0-1.364 2.765-1.364 13.5m49.813-12.817c.721.289 1.584.253 1.916-.079.332-.332-.258-.568-1.312-.525-1.165.048-1.402.285-.604.604m46.918 2.397c.354 1.352.807 1.806 1.057 1.057.24-.722-.038-1.787-.62-2.369-.742-.742-.872-.351-.437 1.312M86 101c0 .55.423 1 .941 1s1.219-.45 1.559-1c.34-.55-.084-1-.941-1S86 100.45 86 101m-6.187.683c.721.289 1.584.253 1.916-.079.332-.332-.258-.568-1.312-.525-1.165.048-1.402.285-.604.604m-22.188 1.115c-.271.439-.08 1.451.426 2.25.717 1.134.922.959.934-.798.015-2.313-.493-2.856-1.36-1.452m29.802.967c-.59.404-1.363 1.522-1.719 2.485-.491 1.333-.116 1.754 1.573 1.765 1.245.009 1.753.338 1.157.75-.741.514-.71 1.421.106 3.012 1.025 1.999 1.321 2.091 2.434.75 1.047-1.263.986-1.527-.356-1.527-1.79 0-2.103-1.085-.734-2.55.488-.523 1.193-1.963 1.567-3.2.532-1.76.284-2.247-1.138-2.235-.999.009-2.3.346-2.89.75M30 108.059c0 .582.45.781 1 .441s1-.816 1-1.059-.45-.441-1-.441-1 .477-1 1.059M232.158 111c0 1.375.227 1.938.504 1.25.278-.687.278-1.812 0-2.5-.277-.687-.504-.125-.504 1.25M13.04 112.395c-.501 1.317-1.502 2.632-2.225 2.921-.887.355-.765.552.376.605.93.043 1.999-.419 2.375-1.028.496-.802.879-.791 1.392.04.39.63.709-.222.709-1.894 0-3.637-1.362-3.971-2.627-.644m56.71-.733c.688.278 1.813.278 2.5 0 .688-.277.125-.504-1.25-.504s-1.937.227-1.25.504m14.256 3.33c-.796 1.104-2.361 2.06-3.477 2.124-1.753.1-1.784.18-.231.583.989.256 2.451-.076 3.25-.739.988-.819 1.452-.854 1.452-.108 0 .603 1.328 1.783 2.95 2.622 2.436 1.26 3.09 1.293 3.75.187.44-.736 1.7-1.847 2.8-2.469 1.495-.846 1.606-1.139.441-1.162-.857-.016-2.432.631-3.5 1.438-2.732 2.066-3.265 1.899-3.625-1.141-.4-3.38-1.946-3.922-3.81-1.335m-72.07 2.585c-1.154 1.391-.911 1.539 2.05 1.25 1.874-.182 3.577-.99 3.85-1.827.419-1.286.252-1.304-1.173-.128-1.081.893-1.663.98-1.663.25 0-1.611-1.539-1.382-3.064.455m193.814-.915c.688.278 1.813.278 2.5 0 .688-.277.125-.504-1.25-.504s-1.937.227-1.25.504M27.047 118c-.023 2.136 1.581 4.41 2.296 3.254.326-.528-.053-1.813-.843-2.857-1.105-1.459-1.44-1.551-1.453-.397M233 119.833c0 .459.675.834 1.5.834s1.5-.375 1.5-.834c0-.458-.675-.833-1.5-.833s-1.5.375-1.5.833m-224.921 1.75c.048 1.165.285 1.402.604.605.289-.722.253-1.585-.079-1.917-.332-.332-.568.258-.525 1.312M81 121c0 .55.477 1 1.059 1s.781-.45.441-1-.816-1-1.059-1-.441.45-.441 1m171.079 1.583c.048 1.165.285 1.402.604.605.289-.722.253-1.585-.079-1.917-.332-.332-.568.258-.525 1.312m-236.92 3.209c-1.287 2.04-1.76 3.146-1.05 2.458 1.87-1.811 2.7-1.547 3.146 1 .36 2.06.462 2.094 1.215.399.501-1.129.395-2.114-.271-2.526-.632-.391-.746-1.237-.271-2.006.584-.946 1.022-1.006 1.516-.207.382.617 1.117.862 1.633.543.99-.612-1.331-3.484-2.756-3.411-.451.024-1.874 1.711-3.162 3.75m190.591-1.13c.688.278 1.813.278 2.5 0 .688-.277.125-.504-1.25-.504s-1.937.227-1.25.504m-135.197 3.253a1.116 1.116 0 00.362 1.532c.521.322 1.21.159 1.532-.362a1.116 1.116 0 00-.362-1.532 1.116 1.116 0 00-1.532.362M78 128c0 .55.477 1 1.059 1s.781-.45.441-1-.816-1-1.059-1-.441.45-.441 1m9 3c-.901.582-1.025.975-.309.985.655.008 1.469-.435 1.809-.985.767-1.242.421-1.242-1.5 0m163 12.167c0 1.008-.08 2.171-.179 2.583-.098.412.577.895 1.5 1.073 1.261.243 1.679-.4 1.679-2.583 0-1.917-.511-2.907-1.5-2.907-.825 0-1.5.825-1.5 1.834M245 146c0 .55.45 1 1 1s1-.45 1-1-.45-1-1-1-1 .45-1 1M94.573 156.67c-.721 1.878 1.23 3.565 3.259 2.819.732-.269 6.004-.489 11.715-.489 9.359 0 10.488-.197 11.453-2 1.046-1.954.76-2-12.358-2-11.621 0-13.514.225-14.069 1.67M146 156.5v2c0 .275 4.387.613 9.75.75l9.75.25.608 4c.532 3.502.626 3.222.75-2.25L167 155h-10.5c-8.667 0-10.5.262-10.5 1.5m86.25-.771c-2.554.313-3.25.866-3.251 2.584-.001 2.082.321 2.163 6.741 1.687 5.385-.399 6.808-.852 7.074-2.25.245-1.287-.326-1.75-2.159-1.75-1.37 0-3.091-.15-3.823-.334-.733-.184-2.795-.155-4.582.063m-179.583.938c-1.008 1.007-.799 4.133.322 4.826.552.341.742-.03.431-.84-.306-.798-.076-1.748.512-2.111.587-.363 1.068-1.083 1.068-1.601 0-1.088-1.359-1.248-2.333-.274m47.101.058c1.797.222 4.497.218 6-.01 1.503-.229.032-.411-3.268-.405-3.3.005-4.529.192-2.732.415m12.501-.032c.973.254 2.323.237 3-.037.677-.274-.119-.481-1.769-.461-1.65.02-2.204.244-1.231.498m5.544-.01c.721.289 1.584.253 1.916-.079.332-.332-.258-.568-1.312-.525-1.165.048-1.402.285-.604.604m83.937.006c-.963.252-1.751 1.212-1.752 2.134-.002 1.444.988 1.63 7.137 1.34 4.764-.226 7.383.058 7.874.851.44.713.916-.053 1.189-1.913l.456-3.101-6.577.116c-3.617.064-7.364.322-8.327.573m-97.374 6.664c-3.108 2.674-3.076 2.266-2.626 33.397L102 214h6.883c6.296 0 6.935-.192 7.479-2.25.484-1.831.123-21.543-.463-25.25-.087-.55.111-4.761.441-9.359.646-9.008-.512-13.092-4.285-15.111-2.918-1.562-4.678-1.259-7.679 1.323m48.613.897c-1.806 2.963-1.981 5.063-1.972 23.75.006 11.275.263 21.441.572 22.592.493 1.835 1.136 2.036 5.236 1.632 2.571-.253 5.006-.97 5.41-1.592 1.196-1.843.897-40.954-.34-44.504-1.048-3.006-3.466-5.128-5.844-5.128-.594 0-1.972 1.463-3.062 3.25m52.883-.599c-1.049 1.263-1.444 6.835-1.678 23.679-.264 19.101-.098 22.144 1.25 22.899 2.014 1.127 1.98 2.394-.085 3.187-1.435.55-1.467.414-.25-1.08 1.225-1.506 1.182-1.632-.359-1.055-2.692 1.009-4.75-.242-4.75-2.888 0-1.316-.45-2.393-1-2.393s-1-.675-1-1.5-.342-1.5-.759-1.5c-1.92 0-3.368-4.829-3.823-12.748-.611-10.657-3.046-16.87-7-17.862-3.117-.782-4.988.154-7.78 3.893-1.589 2.128-2.107 5.063-2.725 15.423-.419 7.037-.796 12.844-.838 12.905-.041.062-1.2-.103-2.575-.366-2.03-.388-2.5-.08-2.5 1.638 0 1.165-.502 2.117-1.117 2.117-.636 0-.921 1.022-.662 2.375.444 2.326.26 2.389-8.894 3.061-7.965.585-9.592.442-11-.966-1.397-1.397-1.434-1.789-.239-2.545.903-.572.983-.9.221-.91-1.905-.024-2.454 1.694-1.746 5.468.509 2.713 1.148 3.52 2.798 3.532 1.581.012 1.785.24.782.875-.862.547-.982 1.091-.33 1.494.564.349 1.678-.018 2.476-.816.797-.797 4.344-1.837 7.882-2.311 6.063-.813 6.442-.745 6.587 1.176.084 1.12.623 2.194 1.198 2.386.574.191 1.03 1.098 1.012 2.014-.029 1.516-.152 1.508-1.36-.083-1.872-2.466-3.621-2.174-3.394.568.184 2.215.536 2.342 4.919 1.765 1.194-.157 1.793-4.511.713-5.178-.671-.415-.746-1.262-.198-2.241.618-1.103 1.324-1.293 2.366-.634.996.63 1.074.944.236.955-.687.008-1.25.513-1.25 1.122 0 .609.704.837 1.565.506 1.202-.461 1.419-.137.933 1.393-.448 1.413-.176 1.994.935 1.994.862 0 1.567-.675 1.567-1.5 0-.986.986-1.5 2.875-1.5 2.4 0 2.875-.413 2.875-2.5 0-1.375-.484-2.5-1.075-2.5-.697 0-.653-.422.125-1.2 1.471-1.471 1.574-4.509.169-4.977-.665-.222-.512-1.759.43-4.333.958-2.619 1.515-3.303 1.619-1.99.087 1.1.323 4.147.525 6.771.431 5.622 1.319 7.566 2.552 5.586.601-.965 1.034-.418 1.5 1.893.36 1.787 1.049 3.25 1.53 3.25.481 0 .875 1.8.875 4 0 3.251.353 4 1.883 4 1.064 0 2.119-.901 2.425-2.069.434-1.66 1.198-2.006 3.866-1.75 2.959.284 3.361.686 3.645 3.639l.318 3.321 5.182-.239c7.137-.329 7.279-.431 6.85-4.922-.429-4.505-2.169-5.461-2.169-1.193 0 4.609-3.339 3.887-6.007-1.3-1.236-2.404-2.858-4.605-3.603-4.891-.746-.286-1.112-1.156-.814-1.933.647-1.685 5.613-1.905 6.659-.294.525.808.739.774.75-.119.008-.719 1.29-1.25 3.015-1.25 2.333 0 3-.444 3-2 0-1.587-.672-2.003-3.25-2.015-1.787-.009-2.745-.346-2.127-.75 2.122-1.389 3.377-11.36 3.377-26.834 0-11.938-.351-16.178-1.526-18.451-1.714-3.314-3.569-3.744-5.602-1.299m28 .001c-1.054 1.27-1.423 6.698-1.591 23.437l-.219 21.784 2.719.414c2.149.327 1.933.445-1.031.563-2.666.107-3.75.601-3.75 1.709 0 .857-.45 1.281-1 .941-.55-.34-1-.141-1 .441s1.125 1.115 2.5 1.184c1.375.069 3.963.207 5.75.307s3.782.008 4.432-.206c1.88-.617 1.116-4.226-.895-4.226-1.791 0-2.444-1.476-1.037-2.346.412-.255.75-9.887.75-21.405 0-16.279-.306-21.309-1.372-22.595-1.724-2.077-2.531-2.078-4.256-.002m-184.205.015c-.925.924-.838 3.333.12 3.333.433 0 .855-.9.938-2 .162-2.149-.017-2.375-1.058-1.333m128.583 2.027c-6.533.355-7.25.598-7.25 2.459 0 2.002.385 2.051 12.628 1.604 10.368-.379 12.792-.756 13.549-2.109.715-1.277.493-1.648-.988-1.648-1.05 0-3.885-.157-6.299-.35-2.415-.192-7.652-.173-11.64.044M52.469 167.05c-.95 1.538.351 2.53 1.635 1.246.718-.718.735-1.277.052-1.699-.56-.346-1.319-.142-1.687.453m-1.855 4.513c-.33.86-.987 1.324-1.461 1.032-.473-.293-1.376.6-2.007 1.983-1.407 3.089-1.439 3.721-.146 2.922.878-.543 1.411.687 1.15 2.655-.048.36.531.892 1.286 1.182.974.374 1.294-.196 1.1-1.962-.187-1.699.138-2.33 1.022-1.991 1.621.622 3.077-1.08 3.97-4.64.614-2.444.416-2.744-1.813-2.744-1.375 0-2.771.704-3.101 1.563m9.386-.004c0 .857.457 1.276 1.016.931.559-.346.758-1.047.441-1.559-.857-1.387-1.457-1.129-1.457.628m185.917-1.146c-.229.228-.263 3.178-.075 6.556.282 5.078.629 6.087 2 5.823.912-.176 1.613-.876 1.558-1.556-.055-.68-.167-3.486-.25-6.236-.103-3.425-.57-5-1.483-5-.734 0-1.521.186-1.75.413M68 186c0 .55.477 1 1.059 1s.781-.45.441-1-.816-1-1.059-1-.441.45-.441 1m68.5 3c-.34.55-.168 1 .382 1s1.278-.45 1.618-1c.34-.55.168-1-.382-1s-1.278.45-1.618 1m40.5 1.5c0 1.556.567 2.5 1.5 2.5s1.5-.944 1.5-2.5-.567-2.5-1.5-2.5-1.5.944-1.5 2.5m-10.771 1c.237 2.861.567 2.97 3.121 1.035 2.149-1.628 1.395-3.535-1.398-3.535-1.447 0-1.878.626-1.723 2.5m-93.15 1.083c.048 1.165.285 1.402.604.605.289-.722.253-1.585-.079-1.917-.332-.332-.568.258-.525 1.312m23.485.124c-.542 1.425-.428 1.54.56.56.684-.679.991-1.486.683-1.793-.308-.308-.867.247-1.243 1.233m71.993 3.23c-1.672 1.848-1.667 2.029.114 3.94 1.845 1.981 1.867 1.959 1.969-1.937.057-2.167.006-3.94-.113-3.94-.119 0-1.006.872-1.97 1.937m29.443.267c0 1.448-.259 3.457-.576 4.464-.482 1.535-.374 1.508.665-.168.682-1.1 1.729-2.321 2.326-2.714.728-.479.509-1.29-.665-2.464-1.667-1.667-1.75-1.625-1.75.882m-184 .028c0 .487-.45.608-1 .268-.55-.34-1-.19-1 .334 0 1.336 2.578 2.178 3.628 1.185.48-.454 1.772-1.007 2.872-1.229 1.435-.29 1.082-.551-1.25-.924-1.788-.286-3.25-.121-3.25.366m11.638 1.268c.317.825 1.189 1.5 1.938 1.5.799 0 1.124-.619.786-1.5-.317-.825-1.189-1.5-1.938-1.5-.799 0-1.124.619-.786 1.5m9.112.233c-2.062.846-3.75 1.854-3.75 2.239 0 .944 7.178.7 8.75-.297.688-.436 1.288-.654 1.333-.484.046.17.196 1.321.333 2.559.324 2.916.82 3.34 2.611 2.233 1.268-.783 1.208-1.391-.437-4.445-2.085-3.872-3.232-4.106-8.84-1.805m37.76-.717c.346.559 1.047.758 1.559.441 1.387-.857 1.129-1.457-.628-1.457-.857 0-1.276.457-.931 1.016m47.569.567c.048 1.165.285 1.402.604.605.289-.722.253-1.585-.079-1.917-.332-.332-.568.258-.525 1.312m-46.578 3.415c-.343 1.079-.159 2.758.408 3.732.676 1.162 1.041 1.304 1.061.413.017-.791.656-1.117 1.53-.781.825.316 1.5.139 1.5-.393 0-.533-.477-.969-1.059-.969s-.855-.338-.605-.75-.146-1.304-.879-1.982c-1.072-.99-1.456-.847-1.956.73M123 200c-.901.582-1.025.975-.309.985.655.008 1.469-.435 1.809-.985.767-1.242.421-1.242-1.5 0m-56.5 2c.34.55.816 1 1.059 1s.441-.45.441-1-.477-1-1.059-1-.781.45-.441 1m65.5 1.929c0 1.174.649 2.071 1.5 2.071.825 0 1.5-.257 1.5-.571 0-.315-.675-1.247-1.5-2.072-1.333-1.333-1.5-1.27-1.5.572M121 206c-.901.582-1.025.975-.309.985.655.008 1.469-.435 1.809-.985.767-1.242.421-1.242-1.5 0m-76.541 1.067c-.363.586-.445 1.281-.183 1.543s.743-.218 1.069-1.067c.676-1.762.1-2.072-.886-.476M172 209c0 1.111.667 2 1.5 2s1.5-.889 1.5-2-.667-2-1.5-2-1.5.889-1.5 2m-33.5 0c.34.55 1.068 1 1.618 1s.722-.45.382-1c-.34-.55-1.068-1-1.618-1s-.722.45-.382 1m-52.627 2.86l-2.627 2.763 4.299-.09c2.365-.05 4.139.169 3.943.486-.196.317-.013 1.131.405 1.808.569.921 1.438.7 3.434-.87 2.979-2.343 3.508-5.423 1.091-6.35-2.611-1.002-3.665-.694-3.056.893.316.825.332 1.5.035 1.5-.297 0-1.215-.675-2.04-1.5-1.986-1.986-2.402-1.882-5.484 1.36m165.485 1.279c1.197 3.17 2.642 2.822 2.642-.636 0-1.692-.53-2.339-1.837-2.24-1.579.119-1.692.524-.805 2.876m-130.345-.168c-1.169.739-1.009.904.75.772 1.23-.093 2.237-.523 2.237-.956 0-1.043-1.159-.972-2.987.184M76 214c0 .55-.633 1-1.406 1-.914 0-1.224.7-.884 2 .656 2.507 4.755 2.684 7.111.306 1.573-1.588 1.553-1.643-.321-.887-3.243 1.31-6.093 1.833-5 .918 1.095-.916 1.918-4.337 1.044-4.337-.299 0-.544.45-.544 1m55.75-.338c.688.278 1.813.278 2.5 0 .688-.277.125-.504-1.25-.504s-1.937.227-1.25.504M98 217.106c0 2.176.952 2.811 4.909 3.272 1.687.196 3.833.979 4.771 1.739.937.761 1.391.86 1.008.222-.645-1.077 3.59-2.296 9.812-2.826 1.238-.105 2.125-1.022 2.328-2.407.326-2.219.227-2.236-11.25-2.007-10.337.207-11.578.422-11.578 2.007m99.638-.606c.317.825.753 1.5.969 1.5.216 0 .393-.675.393-1.5s-.436-1.5-.969-1.5c-.532 0-.709.675-.393 1.5m32.362 1c0 .825.177 1.5.393 1.5.216 0 .652-.675.969-1.5.316-.825.139-1.5-.393-1.5-.533 0-.969.675-.969 1.5m-127.187.183c.721.289 1.584.253 1.916-.079.332-.332-.258-.568-1.312-.525-1.165.048-1.402.285-.604.604m4.949.024c1.244.239 3.044.23 4-.02s-.062-.446-2.262-.435c-2.2.011-2.982.216-1.738.455m32.12.68c-.066.612-.012 1.563.119 2.113s.198 2.463.149 4.25c-.097 3.531 1.696 4.346 3.85 1.75.86-1.036.898-1.5.122-1.5-.617 0-1.122-.727-1.122-1.617 0-1.185.667-1.489 2.5-1.138 1.375.263 2.5.09 2.5-.384 0-.473-.92-.861-2.044-.861-1.385 0-1.949-.558-1.75-1.733.202-1.189-.411-1.774-1.956-1.863-1.238-.072-2.303.37-2.368.983m-46.506 1.075c-.476 1.242-.917 1.334-2.016.422-1.128-.937-1.282-.845-.779.466.391 1.018.006 1.871-1.02 2.265-1.519.583-1.521.772-.029 2.421.891.984 1.71 2.391 1.822 3.126.111.736.57 1.927 1.02 2.648.643 1.029 1.102.922 2.14-.499.727-.994 1.684-1.447 2.125-1.005.442.441.141 1.252-.668 1.802-1.218.827-1.161.947.332.696 2.488-.419 2.403-2.104-.166-3.291-2.311-1.068-2.923-3.503-.887-3.528.847-.011.767-.357-.25-1.076-1.129-.799-1.191-1.187-.25-1.568 1.501-.609 1.65-2.976.243-3.845-.554-.343-1.281.092-1.617.966m41.282-.787c-.362.362-.658.985-.658 1.385 0 1.121 2.87 1.959 3.457 1.01.662-1.071-1.917-3.277-2.799-2.395m65.421 1.516c-.103 2.205 1.79 3.34 3.208 1.922.817-.817.683-1.113-.504-1.113-.889 0-1.843-.562-2.121-1.25-.31-.77-.534-.6-.583.441m16.38-.125c-.316.512.109 1.906.944 3.099l1.519 2.169.975-2.562c.535-1.409 1.565-2.761 2.288-3.004.723-.243-.14-.485-1.918-.538-1.778-.052-3.491.324-3.808.836m10.791.597c-1.797.724-1.541 4.288.36 5.017.885.34 2.909.664 4.497.719 1.589.056 2.889.498 2.891.983.001.485-1.798.64-3.998.345-2.2-.295-4.251-.129-4.559.368-.645 1.044 6.665 1.175 14.309.257l5.25-.631v-3.86c0-3.417-.278-3.861-2.418-3.861-3.38 0-5.582.986-5.582 2.5 0 2.2-2.845 2.563-3.516.449-.34-1.072-1.227-1.949-1.97-1.949-.743 0-1.95-.189-2.682-.421-.733-.231-1.894-.194-2.582.084m-104 3.683c-2.305 2.279-2.941 5.109-1.365 6.083.486.3 1.08 1.88 1.319 3.51.376 2.556.083 3.018-2.134 3.362-1.952.303-1.708.435 1.013.549 3.935.165 3.764.564 4.22-9.85.181-4.135.44-4.55 3.197-5.118 2.999-.619 2.999-.619-.5-.69-2.346-.048-4.242.662-5.75 2.154m32.944.18c-.893 1.523-1.353 1.677-2.014.677-.686-1.039-1.113-.989-2.141.25-1.129 1.36-.696 1.545 3.589 1.532 2.679-.009 4.377-.346 3.772-.75s-1.314-1.398-1.575-2.209c-.378-1.173-.711-1.071-1.631.5m-79.57.273c-.408.661-.265 1.201.317 1.201.582 0 1.095.787 1.138 1.75.063 1.394.195 1.445.65.25.314-.825 1.066-1.88 1.671-2.344.68-.522.456-.639-.585-.307-.927.296-1.857.024-2.067-.606-.279-.837-.581-.822-1.124.056M177 226.347c0 2.163.462 2.653 2.5 2.653 1.375 0 2.5-.525 2.5-1.167 0-.641-.292-.875-.648-.518-.357.357-1.482-.312-2.5-1.486L177 223.694v2.653m-95-.288c0 .582.45.781 1 .441s1-.816 1-1.059-.45-.441-1-.441-1 .477-1 1.059m65.5-.059c.34.55 1.041 1 1.559 1s.941-.45.941-1-.702-1-1.559-1-1.281.45-.941 1m94 0c-1.772.762-1.687.867.75.93 1.512.038 2.75-.38 2.75-.93 0-1.174-.769-1.174-3.5 0m-133.993.989c-.35.566.051.734.941.393 1.732-.665 2.049-1.382.611-1.382-.518 0-1.216.445-1.552.989M131.5 227c.34.55 1.293 1 2.118 1s1.222-.45.882-1c-.34-.55-1.293-1-2.118-1s-1.222.45-.882 1m-57.18 3.48c.144 2.813.578 3.496 2.18 3.437 1.1-.041 1.438-.302.75-.579-.687-.278-1.25-1.566-1.25-2.862 0-1.297-.419-2.617-.93-2.933-.517-.319-.85.984-.75 2.937m9.493-1.797c.721.289 1.584.253 1.916-.079.332-.332-.258-.568-1.312-.525-1.165.048-1.402.285-.604.604M113 229.918c0 .505.288 1.668.639 2.584.476 1.241.835 1.349 1.408.423.422-.684.536-1.847.253-2.584-.58-1.514-2.3-1.829-2.3-.423m-7 .475c0 .216.698.661 1.552.989.89.341 1.291.173.941-.393-.587-.951-2.493-1.406-2.493-.596m71 1.107c0 1.679 4.926 1.85 15.5.538 6.712-.832 6.35-.941-5-1.502-5.064-.249-7.082-.09-5.5.435 2.335.775 2.355.836.309.929-1.205.055-2.469-.35-2.809-.9-.934-1.511-2.5-1.198-2.5.5m-90.25 1.162c.688.278 1.813.278 2.5 0 .688-.277.125-.504-1.25-.504s-1.937.227-1.25.504m82.519 1.031c.973.254 2.323.237 3-.037.677-.274-.119-.481-1.769-.461-1.65.02-2.204.244-1.231.498M53 237.894c0 3.614.198 3.885 2.75 3.763 1.513-.073 3.081-.588 3.485-1.145 1.046-1.442.941-4.739-.13-4.077-.493.305-1.153-.119-1.469-.941-.315-.822-1.487-1.494-2.605-1.494-1.694 0-2.031.647-2.031 3.894m62.813.789c.721.289 1.584.253 1.916-.079.332-.332-.258-.568-1.312-.525-1.165.048-1.402.285-.604.604" fill="#1976D2" fill-rule="evenodd"/></svg>